<svg xmlns="http://www.w3.org/2000/svg" width="800" height="600" viewBox="0 0 800 600">
  <rect width="800" height="600" fill="#0a0a0f"/>
  <!-- Sidebar -->
  <rect x="40" y="40" width="160" height="520" rx="8" fill="#0d0d14" stroke="#1e1e2e" stroke-width="1"/>
  <text x="60" y="80" font-family="system-ui" font-size="14" fill="#c9a96e" font-weight="600">APEX HR</text>
  <rect x="55" y="100" width="130" height="32" rx="6" fill="#c9a96e" opacity="0.15"/>
  <text x="70" y="120" font-family="system-ui" font-size="11" fill="#c9a96e">Dashboard</text>
  <text x="70" y="155" font-family="system-ui" font-size="11" fill="#666">Candidates</text>
  <text x="70" y="185" font-family="system-ui" font-size="11" fill="#666">Interviews</text>
  <text x="70" y="215" font-family="system-ui" font-size="11" fill="#666">Reports</text>
  <text x="70" y="245" font-family="system-ui" font-size="11" fill="#666">Settings</text>
  <!-- Main content -->
  <rect x="220" y="40" width="540" height="120" rx="8" fill="#0d0d14" stroke="#1e1e2e" stroke-width="1"/>
  <rect x="240" y="58" width="120" height="84" rx="6" fill="#0a0a0f"/>
  <text x="256" y="84" font-family="system-ui" font-size="10" fill="#888">Active Candidates</text>
  <text x="256" y="118" font-family="system-ui" font-size="30" fill="#c9a96e" font-weight="300">10,241</text>
  <rect x="380" y="58" width="120" height="84" rx="6" fill="#0a0a0f"/>
  <text x="396" y="84" font-family="system-ui" font-size="10" fill="#888">Time to Hire</text>
  <text x="396" y="118" font-family="system-ui" font-size="30" fill="#7ec97e" font-weight="300">-45%</text>
  <rect x="520" y="58" width="120" height="84" rx="6" fill="#0a0a0f"/>
  <text x="536" y="84" font-family="system-ui" font-size="10" fill="#888">Interviews Today</text>
  <text x="536" y="118" font-family="system-ui" font-size="30" fill="#7eb8c9" font-weight="300">47</text>
  <!-- Candidate pipeline -->
  <rect x="220" y="180" width="540" height="380" rx="8" fill="#0d0d14" stroke="#1e1e2e" stroke-width="1"/>
  <text x="240" y="208" font-family="system-ui" font-size="13" fill="#ddd" font-weight="500">Candidate Pipeline</text>
  <!-- Pipeline stages -->
  <rect x="240" y="220" width="90" height="24" rx="4" fill="#7eb8c9" opacity="0.2"/>
  <text x="255" y="237" font-family="system-ui" font-size="9" fill="#7eb8c9">APPLIED (342)</text>
  <rect x="340" y="220" width="90" height="24" rx="4" fill="#c9a96e" opacity="0.2"/>
  <text x="352" y="237" font-family="system-ui" font-size="9" fill="#c9a96e">SCREENED (128)</text>
  <rect x="440" y="220" width="90" height="24" rx="4" fill="#a07ec9" opacity="0.2"/>
  <text x="450" y="237" font-family="system-ui" font-size="9" fill="#a07ec9">INTERVIEW (47)</text>
  <rect x="540" y="220" width="90" height="24" rx="4" fill="#7ec97e" opacity="0.2"/>
  <text x="556" y="237" font-family="system-ui" font-size="9" fill="#7ec97e">OFFER (12)</text>
  <!-- Candidate rows -->
  <rect x="240" y="260" width="500" height="44" rx="4" fill="#0a0a0f"/>
  <circle cx="260" cy="282" r="14" fill="#1a1a2e"/>
  <text x="250" y="287" font-family="system-ui" font-size="10" fill="#888">JD</text>
  <text x="285" y="278" font-family="system-ui" font-size="11" fill="#ddd">James Davidson</text>
  <text x="285" y="295" font-family="system-ui" font-size="9" fill="#666">Senior Software Engineer · Applied 2 days ago</text>
  <rect x="640" y="270" width="80" height="22" rx="4" fill="#7ec97e" opacity="0.2"/>
  <text x="653" y="285" font-family="system-ui" font-size="9" fill="#7ec97e">AI MATCH 94%</text>
  <rect x="240" y="315" width="500" height="44" rx="4" fill="#0a0a0f"/>
  <circle cx="260" cy="337" r="14" fill="#1a1a2e"/>
  <text x="252" y="342" font-family="system-ui" font-size="10" fill="#888">SR</text>
  <text x="285" y="333" font-family="system-ui" font-size="11" fill="#ddd">Sarah Rodriguez</text>
  <text x="285" y="350" font-family="system-ui" font-size="9" fill="#666">Product Designer · Interview scheduled</text>
  <rect x="640" y="325" width="80" height="22" rx="4" fill="#c9a96e" opacity="0.2"/>
  <text x="653" y="340" font-family="system-ui" font-size="9" fill="#c9a96e">INTERVIEW</text>
  <rect x="240" y="370" width="500" height="44" rx="4" fill="#0a0a0f"/>
  <circle cx="260" cy="392" r="14" fill="#1a1a2e"/>
  <text x="253" y="397" font-family="system-ui" font-size="10" fill="#888">MK</text>
  <text x="285" y="388" font-family="system-ui" font-size="11" fill="#ddd">Marcus Kim</text>
  <text x="285" y="405" font-family="system-ui" font-size="9" fill="#666">DevOps Engineer · Offer pending</text>
  <rect x="640" y="380" width="80" height="22" rx="4" fill="#7eb8c9" opacity="0.2"/>
  <text x="660" y="395" font-family="system-ui" font-size="9" fill="#7eb8c9">OFFER SENT</text>
  <!-- Label -->
  <rect x="0" y="540" width="200" height="60" fill="rgba(0,0,0,0.8)"/>
  <text x="16" y="565" font-family="system-ui" font-size="10" fill="#c9a96e" letter-spacing="2">SOFTWARE</text>
  <text x="16" y="588" font-family="system-ui" font-size="13" fill="#fff" font-weight="600">Apex HR Platform</text>
</svg>