<svg xmlns="http://www.w3.org/2000/svg" width="800" height="600" viewBox="0 0 800 600">
  <rect width="800" height="600" fill="#1a1a22"/>
  <rect x="280" y="60" width="240" height="480" rx="24" fill="#0d0d14" stroke="#2e2e3e" stroke-width="2"/>
  <rect x="295" y="80" width="210" height="440" rx="12" fill="#111118"/>
  <text x="340" y="130" font-family="system-ui" font-size="16" fill="#c9a96e" font-weight="600">VELO</text>
  <text x="320" y="155" font-family="system-ui" font-size="11" fill="#666" opacity="0.7">Private Banking</text>
  <rect x="315" y="180" width="170" height="90" rx="8" fill="#0a0a0f"/>
  <text x="330" y="205" font-family="system-ui" font-size="10" fill="#888">Total Balance</text>
  <text x="330" y="235" font-family="system-ui" font-size="28" fill="#c9a96e" font-weight="300">$245,820</text>
  <text x="330" y="260" font-family="system-ui" font-size="9" fill="#7ec97e">+4.2% this month</text>
  <rect x="315" y="290" width="80" height="50" rx="6" fill="#c9a96e" opacity="0.15"/>
  <text x="330" y="313" font-family="system-ui" font-size="9" fill="#888">Checking</text>
  <text x="330" y="333" font-family="system-ui" font-size="14" fill="#c9a96e" font-weight="500">$43,200</text>
  <rect x="405" y="290" width="80" height="50" rx="6" fill="#7eb8c9" opacity="0.15"/>
  <text x="420" y="313" font-family="system-ui" font-size="9" fill="#888">Savings</text>
  <text x="420" y="333" font-family="system-ui" font-size="14" fill="#7eb8c9" font-weight="500">$202,620</text>
  <text x="315" y="375" font-family="system-ui" font-size="11" fill="#888" opacity="0.9">Recent Transactions</text>
  <rect x="315" y="390" width="170" height="36" rx="4" fill="#0a0a0f"/>
  <circle cx="330" cy="408" r="10" fill="#c9a96e" opacity="0.2"/>
  <text x="350" y="406" font-family="system-ui" font-size="10" fill="#ddd">Starbucks</text>
  <text x="350" y="419" font-family="system-ui" font-size="9" fill="#666">Today, 9:42 AM</text>
  <text x="455" y="411" font-family="system-ui" font-size="11" fill="#ddd" text-anchor="end">-$5.80</text>
  <rect x="315" y="435" width="170" height="36" rx="4" fill="#0a0a0f"/>
  <circle cx="330" cy="453" r="10" fill="#7eb8c9" opacity="0.2"/>
  <text x="350" y="451" font-family="system-ui" font-size="10" fill="#ddd">Salary Deposit</text>
  <text x="350" y="464" font-family="system-ui" font-size="9" fill="#666">Yesterday</text>
  <text x="470" y="456" font-family="system-ui" font-size="11" fill="#7ec97e" text-anchor="end">+$8,200</text>
  <rect x="350" y="495" width="100" height="12" rx="6" fill="#2e2e3e"/>
</svg>