<svg xmlns="http://www.w3.org/2000/svg" width="800" height="600" viewBox="0 0 800 600">
  <rect width="800" height="600" fill="#0a0a0f"/>
  <rect x="40" y="40" width="520" height="340" rx="8" fill="#111118" stroke="#1e1e2e" stroke-width="1"/>
  <rect x="40" y="40" width="130" height="340" rx="8" fill="#0d0d14"/>
  <rect x="55" y="70" width="100" height="8" rx="4" fill="#1a1a2e"/>
  <rect x="55" y="90" width="80" height="8" rx="4" fill="#1a1a2e"/>
  <rect x="55" y="120" width="100" height="30" rx="4" fill="#7c5c2e" opacity="0.4"/>
  <rect x="55" y="160" width="100" height="30" rx="4" fill="#1a1a2e"/>
  <rect x="55" y="200" width="100" height="30" rx="4" fill="#1a1a2e"/>
  <rect x="55" y="240" width="100" height="30" rx="4" fill="#1a1a2e"/>
  <text x="200" y="80" font-family="monospace" font-size="18" fill="#c9a96e" opacity="0.9">Dashboard</text>
  <rect x="190" y="100" width="120" height="60" rx="6" fill="#111118" stroke="#1e1e2e" stroke-width="1"/>
  <text x="200" y="125" font-family="monospace" font-size="11" fill="#666">Revenue</text>
  <text x="200" y="148" font-family="monospace" font-size="20" fill="#c9a96e">$2.4M</text>
  <rect x="320" y="100" width="120" height="60" rx="6" fill="#111118" stroke="#1e1e2e" stroke-width="1"/>
  <text x="330" y="125" font-family="monospace" font-size="11" fill="#666">Users</text>
  <text x="330" y="148" font-family="monospace" font-size="20" fill="#7eb8c9">50,241</text>
  <rect x="450" y="100" width="95" height="60" rx="6" fill="#111118" stroke="#1e1e2e" stroke-width="1"/>
  <text x="460" y="125" font-family="monospace" font-size="11" fill="#666">Uptime</text>
  <text x="460" y="148" font-family="monospace" font-size="20" fill="#7ec97e">99.9%</text>
  <polyline points="190,280 230,240 280,260 330,200 380,220 430,170 480,190 540,150" stroke="#c9a96e" stroke-width="2" fill="none" opacity="0.8"/>
  <polyline points="190,300 230,285 280,290 330,270 380,280 430,255 480,265 540,240" stroke="#7eb8c9" stroke-width="2" fill="none" opacity="0.6"/>
  <rect x="190" y="320" width="30" height="40" rx="2" fill="#c9a96e" opacity="0.6"/>
  <rect x="230" y="300" width="30" height="60" rx="2" fill="#c9a96e" opacity="0.6"/>
  <rect x="270" y="310" width="30" height="50" rx="2" fill="#c9a96e" opacity="0.6"/>
  <rect x="310" y="295" width="30" height="65" rx="2" fill="#c9a96e" opacity="0.6"/>
  <rect x="350" y="305" width="30" height="55" rx="2" fill="#c9a96e" opacity="0.6"/>
  <rect x="390" y="285" width="30" height="75" rx="2" fill="#c9a96e" opacity="0.6"/>
  <text x="580" y="80" font-family="monospace" font-size="12" fill="#c9a96e" opacity="0.7">FinTrack</text>
  <text x="580" y="100" font-family="monospace" font-size="10" fill="#444">SaaS Platform</text>
</svg>