<svg xmlns="http://www.w3.org/2000/svg" width="1200" height="675" viewBox="0 0 1200 675">
  <rect width="1200" height="675" fill="#0f0e0a"/>
  <ellipse cx="600" cy="300" rx="500" ry="350" fill="#1a1205" opacity="0.5"/>
  <rect x="200" y="0" width="12" height="200" fill="#2a2520"/>
  <rect x="500" y="0" width="12" height="240" fill="#2a2520"/>
  <rect x="700" y="0" width="12" height="200" fill="#2a2520"/>
  <rect x="0" y="0" width="1200" height="20" fill="#2a2520"/>
  <ellipse cx="206" cy="220" rx="45" ry="32" fill="#ffe4a0" opacity="0.12"/>
  <ellipse cx="206" cy="206" rx="26" ry="18" fill="#ffe4a0" opacity="0.35"/>
  <rect x="186" y="178" width="40" height="28" rx="4" fill="#333"/>
  <ellipse cx="506" cy="260" rx="50" ry="36" fill="#ffe4a0" opacity="0.15"/>
  <ellipse cx="506" cy="244" rx="28" ry="20" fill="#ffe4a0" opacity="0.45"/>
  <rect x="484" y="212" width="44" height="30" rx="4" fill="#333"/>
  <ellipse cx="706" cy="220" rx="45" ry="32" fill="#ffe4a0" opacity="0.12"/>
  <ellipse cx="706" cy="206" rx="26" ry="18" fill="#ffe4a0" opacity="0.35"/>
  <rect x="686" y="178" width="40" height="28" rx="4" fill="#333"/>
  <polygon points="206,234 230,206 230,260" fill="#ffe4a0" opacity="0.1"/>
  <polygon points="506,268 540,240 540,296" fill="#ffe4a0" opacity="0.12"/>
  <polygon points="706,234 730,206 730,260" fill="#ffe4a0" opacity="0.1"/>
  <rect x="460" y="420" width="280" height="160" rx="6" fill="#0a0905"/>
  <rect x="480" y="440" width="240" height="120" rx="4" fill="#111008"/>
  <circle cx="600" cy="470" r="6" fill="#1a1810"/>
  <rect x="520" y="490" width="160" height="50" rx="4" fill="#0a0905"/>
  <circle cx="540" cy="515" r="8" fill="#1a1810"/>
  <rect x="600" y="430" width="100" height="70" rx="4" fill="#0a0905"/>
  <rect x="610" y="440" width="80" height="50" rx="3" fill="#111008"/>
  <circle cx="650" cy="466" r="16" fill="#0d0d0c" stroke="#222" stroke-width="1.5"/>
  <circle cx="650" cy="466" r="10" fill="#060605"/>
  <line x1="900" y1="100" x2="900" y2="580" stroke="#1a1810" stroke-width="2"/>
  <text x="920" y="140" font-family="system-ui" font-size="13" fill="#c9a96e" font-weight="600">Services</text>
  <text x="920" y="168" font-family="system-ui" font-size="11" fill="#888">Brand Films</text>
  <text x="920" y="192" font-family="system-ui" font-size="11" fill="#888">Social Content</text>
  <text x="920" y="216" font-family="system-ui" font-size="11" fill="#888">Photography</text>
  <text x="920" y="240" font-family="system-ui" font-size="11" fill="#888">Campaign Strategy</text>
</svg>