<?xml version="1.0" standalone="no"?>
<!DOCTYPE svg PUBLIC "-//W3C//DTD SVG 20010904//EN"
 "http://www.w3.org/TR/2001/REC-SVG-20010904/DTD/svg10.dtd">
<svg version="1.0" xmlns="http://www.w3.org/2000/svg"
 width="740.000000pt" height="493.000000pt" viewBox="0 0 740.000000 493.000000"
 preserveAspectRatio="xMidYMid meet">

<g transform="translate(0.000000,493.000000) scale(0.100000,-0.100000)"
fill="#000000" stroke="none">
<path d="M4943 3233 c9 -2 23 -2 30 0 6 3 -1 5 -18 5 -16 0 -22 -2 -12 -5z"/>
<path d="M4780 3201 c-20 -4 11 -6 72 -6 58 0 101 3 95 7 -14 9 -117 8 -167
-1z"/>
<path d="M4584 3179 c-5 -8 -28 -19 -51 -25 -39 -10 -43 -10 -43 7 0 12 -7 19
-17 19 -11 0 -14 -3 -8 -8 21 -14 9 -36 -30 -53 -57 -25 -40 -23 44 6 85 29
236 56 271 49 l25 -5 -25 11 c-18 8 -41 8 -84 0 -45 -9 -61 -9 -66 0 -6 9 -10
9 -16 -1z"/>
<path d="M4853 3163 c9 -2 25 -2 35 0 9 3 1 5 -18 5 -19 0 -27 -2 -17 -5z"/>
<path d="M4923 3153 c9 -2 23 -2 30 0 6 3 -1 5 -18 5 -16 0 -22 -2 -12 -5z"/>
<path d="M4367 3130 c3 -11 7 -20 9 -20 2 0 4 9 4 20 0 11 -4 20 -9 20 -5 0
-7 -9 -4 -20z"/>
<path d="M5010 3140 c-13 -8 -12 -10 3 -10 9 0 17 5 17 10 0 12 -1 12 -20 0z"/>
<path d="M3838 3123 c7 -3 16 -2 19 1 4 3 -2 6 -13 5 -11 0 -14 -3 -6 -6z"/>
<path d="M4335 3081 c-22 -11 -35 -19 -30 -19 14 -1 93 36 80 37 -5 0 -28 -8
-50 -18z"/>
<path d="M4566 3069 c5 -9 -1 -10 -21 -5 -25 6 -27 5 -15 -9 7 -9 19 -14 27
-11 7 3 13 2 13 -3 0 -12 -79 -43 -90 -36 -5 3 -11 -4 -15 -15 -3 -11 -13 -20
-22 -20 -9 0 -13 -6 -9 -15 3 -9 0 -15 -10 -15 -8 0 -13 4 -9 9 3 5 1 12 -5
16 -5 3 -10 -1 -10 -9 0 -20 48 -56 66 -49 8 3 14 0 14 -5 0 -16 59 -42 66
-30 4 7 2 8 -4 4 -7 -4 -13 -1 -13 6 -1 7 -2 18 -4 23 -1 6 -3 21 -4 35 -2 14
-5 19 -8 13 -8 -22 -20 -14 -20 13 0 26 29 46 55 37 6 -3 12 -1 12 5 0 13 44
24 64 16 9 -4 14 -15 12 -28 -2 -11 -1 -15 1 -8 6 17 20 15 32 -5 6 -10 11
-13 11 -6 0 22 80 -29 80 -51 0 -16 2 -18 9 -7 5 8 14 10 22 6 7 -5 4 3 -7 17
-10 14 -22 24 -26 22 -3 -2 -13 2 -21 10 -8 8 -17 13 -19 10 -3 -2 -10 2 -17
10 -9 11 -6 16 19 24 24 9 32 8 40 -6 8 -12 10 -13 7 -2 -2 8 3 20 12 27 26
20 -7 16 -56 -7 -38 -17 -46 -17 -70 -5 -28 15 -25 19 12 16 15 -2 17 0 6 7
-11 8 -11 10 0 15 8 3 -2 4 -22 3 -21 0 -35 -4 -33 -7 2 -4 -3 -10 -12 -13
-23 -9 -24 -8 -24 14 0 11 -5 20 -11 20 -5 0 -7 -5 -3 -11z"/>
<path d="M3780 3040 c-19 -11 -30 -19 -25 -19 6 0 26 8 45 19 19 11 31 19 25
19 -5 0 -26 -8 -45 -19z"/>
<path d="M4240 3044 l-25 -15 25 7 c28 7 35 12 29 18 -2 2 -15 -2 -29 -10z"/>
<path d="M4340 3050 c-9 -6 -10 -10 -3 -10 6 0 15 5 18 10 8 12 4 12 -15 0z"/>
<path d="M4093 3043 c9 -2 25 -2 35 0 9 3 1 5 -18 5 -19 0 -27 -2 -17 -5z"/>
<path d="M4365 3023 c-4 -13 -13 -23 -21 -23 -7 0 -16 -4 -19 -10 -4 -6 1 -7
11 -3 12 4 15 2 12 -8 -3 -8 -10 -15 -16 -15 -32 -4 -35 -7 -12 -13 21 -6 26
-15 31 -51 6 -45 6 -45 7 -7 2 26 7 37 17 37 13 0 14 4 5 20 -8 14 -8 20 0 20
6 0 9 4 6 8 -8 13 28 11 36 -2 5 -6 8 -2 8 10 0 15 8 24 26 28 15 4 24 10 21
13 -3 3 -19 1 -35 -5 -22 -7 -33 -7 -42 1 -10 9 -11 9 -6 0 4 -7 3 -13 -3 -13
-5 0 -12 8 -14 18 -4 14 -6 14 -12 -5z"/>
<path d="M4217 2984 c-48 -24 -92 -42 -98 -39 -5 4 -8 1 -7 -7 2 -7 -4 -13
-12 -13 -8 0 -17 -2 -20 -5 -20 -22 -72 -50 -81 -44 -8 4 -9 3 -5 -4 8 -13
-93 -74 -107 -65 -6 3 -7 2 -4 -4 3 -5 -7 -17 -24 -27 -16 -9 -29 -21 -29 -27
0 -14 3 -12 51 26 24 19 49 35 55 35 5 0 37 17 70 38 32 22 104 61 159 88 55
27 106 55 114 62 7 7 19 11 26 9 6 -3 12 1 12 9 0 19 0 19 -100 -32z"/>
<path d="M3685 3001 c-22 -11 -34 -20 -27 -20 16 -1 82 26 82 33 0 10 -13 6
-55 -13z"/>
<path d="M4828 2997 c-44 -20 -69 -45 -31 -30 11 4 14 3 9 -5 -4 -7 -2 -12 5
-12 6 0 9 -8 7 -18 -3 -12 2 -24 13 -31 11 -6 19 -7 19 -2 0 5 -4 11 -9 13 -5
2 -11 17 -15 33 -6 28 -3 31 34 48 22 9 40 19 40 22 0 10 -25 3 -72 -18z"/>
<path d="M2218 2993 c7 -3 16 -2 19 1 4 3 -2 6 -13 5 -11 0 -14 -3 -6 -6z"/>
<path d="M4061 2984 c0 -11 3 -14 6 -6 3 7 2 16 -1 19 -3 4 -6 -2 -5 -13z"/>
<path d="M2273 2983 c9 -2 25 -2 35 0 9 3 1 5 -18 5 -19 0 -27 -2 -17 -5z"/>
<path d="M4574 2954 c4 -21 10 -64 13 -94 8 -84 16 -75 9 10 -3 41 -6 83 -7
92 0 10 -5 21 -11 24 -8 5 -9 -5 -4 -32z"/>
<path d="M2338 2973 c6 -2 18 -2 25 0 6 3 1 5 -13 5 -14 0 -19 -2 -12 -5z"/>
<path d="M4951 2952 c0 -16 3 -21 6 -12 3 8 10 18 15 21 5 3 3 9 -6 12 -12 5
-16 0 -15 -21z"/>
<path d="M4990 2970 c0 -5 5 -10 10 -10 6 0 10 5 10 10 0 6 -4 10 -10 10 -5 0
-10 -4 -10 -10z"/>
<path d="M2460 2962 c17 -10 219 -37 226 -29 3 2 -39 10 -93 16 -54 7 -109 15
-123 17 -18 4 -21 3 -10 -4z"/>
<path d="M4267 2963 c6 -4 13 -22 16 -38 4 -27 5 -27 3 4 0 21 -7 36 -16 38
-10 3 -11 2 -3 -4z"/>
<path d="M4886 2944 c-3 -7 5 -9 20 -6 33 6 40 20 9 18 -14 0 -27 -6 -29 -12z"/>
<path d="M3538 2919 c-32 -16 -58 -32 -58 -34 0 -3 27 8 60 25 33 17 60 32 60
35 0 7 2 8 -62 -26z"/>
<path d="M2740 2926 c0 -2 11 -6 25 -8 14 -3 25 -1 25 3 0 5 -11 9 -25 9 -14
0 -25 -2 -25 -4z"/>
<path d="M3940 2918 c0 -9 5 -20 10 -23 13 -8 13 5 0 25 -8 13 -10 13 -10 -2z"/>
<path d="M5053 2920 c-34 -14 -28 -21 7 -8 17 5 37 7 46 4 8 -3 12 -2 9 4 -7
12 -32 12 -62 0z"/>
<path d="M4140 2910 c-8 -5 -10 -10 -5 -10 6 0 17 5 25 10 8 5 11 10 5 10 -5
0 -17 -5 -25 -10z"/>
<path d="M5440 2916 c0 -2 8 -10 18 -17 15 -13 16 -12 3 4 -13 16 -21 21 -21
13z"/>
<path d="M4550 2900 c-9 -6 -10 -10 -3 -10 6 0 15 5 18 10 8 12 4 12 -15 0z"/>
<path d="M4961 2894 c0 -11 3 -14 6 -6 3 7 2 16 -1 19 -3 4 -6 -2 -5 -13z"/>
<path d="M1813 2883 c9 -2 23 -2 30 0 6 3 -1 5 -18 5 -16 0 -22 -2 -12 -5z"/>
<path d="M2935 2880 c-16 -7 -17 -9 -3 -9 9 -1 20 4 23 9 7 11 7 11 -20 0z"/>
<path d="M5134 2870 c0 -13 4 -16 10 -10 7 7 7 13 0 20 -6 6 -10 3 -10 -10z"/>
<path d="M5185 2880 c3 -5 -2 -10 -12 -11 -10 0 -13 -3 -5 -6 6 -2 12 -12 13
-21 0 -12 3 -10 9 6 6 13 18 22 31 22 28 0 22 5 -14 14 -19 4 -26 3 -22 -4z"/>
<path d="M4055 2853 c-11 -8 -32 -19 -47 -25 -24 -8 -39 -28 -23 -28 4 0 68
39 94 57 2 2 2 5 0 7 -2 2 -13 -2 -24 -11z"/>
<path d="M4550 2856 c0 -2 8 -10 18 -17 15 -13 16 -12 3 4 -13 16 -21 21 -21
13z"/>
<path d="M4630 2824 c0 -21 5 -46 10 -54 7 -10 8 1 4 35 -8 62 -14 70 -14 19z"/>
<path d="M5254 2841 c10 -11 15 -25 11 -30 -4 -7 7 -11 29 -11 20 0 36 4 36 9
0 14 -26 21 -37 10 -6 -6 -14 0 -23 16 -7 14 -18 25 -23 25 -6 0 -2 -9 7 -19z"/>
<path d="M3690 2840 c-8 -5 -10 -10 -4 -10 6 0 14 -18 18 -40 4 -23 11 -38 16
-35 14 8 13 35 -1 35 -7 0 -10 12 -7 30 5 32 1 35 -22 20z"/>
<path d="M3735 2840 c3 -5 8 -10 11 -10 2 0 4 5 4 10 0 6 -5 10 -11 10 -5 0
-7 -4 -4 -10z"/>
<path d="M3765 2840 c-3 -6 1 -7 9 -4 18 7 21 14 7 14 -6 0 -13 -4 -16 -10z"/>
<path d="M3815 2840 c-7 -12 12 -12 40 0 18 8 17 9 -7 9 -15 1 -30 -3 -33 -9z"/>
<path d="M5527 2839 c7 -7 15 -10 18 -7 3 3 -2 9 -12 12 -14 6 -15 5 -6 -5z"/>
<path d="M4492 2815 c0 -16 2 -22 5 -12 2 9 2 23 0 30 -3 6 -5 -1 -5 -18z"/>
<path d="M2768 2813 c7 -3 16 -2 19 1 4 3 -2 6 -13 5 -11 0 -14 -3 -6 -6z"/>
<path d="M4823 2775 c0 -27 2 -38 4 -22 2 15 2 37 0 50 -2 12 -4 0 -4 -28z"/>
<path d="M3951 2793 c-7 -8 -10 -17 -7 -20 9 -9 29 13 25 25 -2 6 -10 3 -18
-5z"/>
<path d="M3585 2777 c-22 -13 -84 -51 -137 -85 -54 -34 -104 -62 -113 -62 -8
0 -15 -4 -15 -9 0 -5 -11 -12 -25 -15 -14 -4 -25 -10 -25 -15 0 -5 -33 -33
-72 -62 -40 -30 -79 -59 -86 -66 -7 -7 -18 -13 -23 -13 -6 0 -8 -10 -4 -22 5
-17 4 -19 -3 -9 -9 12 -14 12 -36 -3 -28 -18 -35 -32 -12 -23 10 4 13 1 9 -9
-4 -10 -13 -14 -28 -10 -15 4 -25 1 -28 -9 -4 -9 -1 -12 9 -8 20 7 18 -14 -3
-26 -10 -6 -13 -11 -6 -11 6 0 15 5 18 10 5 8 11 7 21 -1 11 -9 14 -9 14 0 0
7 5 9 11 6 12 -8 -47 -55 -68 -55 -11 0 -18 27 -14 53 2 13 -26 7 -39 -8 -8
-9 -8 -15 -2 -15 6 0 12 5 14 10 2 6 8 -6 14 -25 9 -29 9 -35 -2 -31 -8 3 -11
0 -8 -9 6 -14 -24 -35 -50 -35 -8 0 -22 7 -31 16 -9 9 -23 13 -32 9 -15 -5
-15 -7 -3 -16 12 -8 9 -15 -20 -40 l-35 -31 46 30 c26 18 50 27 58 23 9 -6 8
-11 -4 -21 -8 -7 -15 -10 -15 -7 0 3 -19 -12 -42 -34 -23 -21 -46 -39 -50 -39
-19 0 -23 -2 -31 -16 -11 -20 -37 0 -37 27 0 11 -4 19 -10 19 -5 0 -10 -4 -10
-10 0 -5 -12 -10 -26 -10 -14 0 -23 -4 -19 -10 4 -6 15 -6 30 0 29 11 33 3 8
-16 -16 -13 -16 -14 -1 -8 30 10 38 -5 16 -31 -16 -19 -24 -22 -30 -13 -6 10
-8 8 -8 -4 0 -9 -5 -20 -12 -24 -8 -5 -9 -2 -5 9 3 9 2 19 -3 22 -4 3 -11 -8
-15 -24 -6 -28 -35 -59 -73 -80 -17 -9 -22 -7 -28 12 -5 12 -7 27 -5 32 1 6
-10 -2 -26 -16 -15 -14 -43 -36 -61 -48 -18 -13 -30 -26 -27 -29 3 -4 10 -1
14 6 6 10 15 10 34 3 29 -11 34 -17 15 -19 -57 -4 -91 -11 -101 -21 -6 -6 -20
-11 -31 -11 -24 0 -13 -13 16 -17 34 -5 34 -12 4 -41 -27 -25 -35 -27 -100
-25 -45 1 -62 -1 -46 -6 l25 -7 -23 -13 c-12 -6 -20 -16 -17 -22 8 -12 18 -10
-127 -18 -88 -4 -131 -10 -140 -20 -11 -11 -9 -13 9 -8 14 3 24 -1 27 -10 5
-12 1 -14 -18 -9 -16 4 -26 1 -29 -8 -4 -10 0 -14 11 -11 67 12 162 16 162 6
0 -6 -17 -12 -37 -12 -154 -5 -148 -6 -147 19 0 12 -3 22 -7 22 -5 0 -6 7 -2
16 5 14 3 14 -15 3 -14 -9 -17 -16 -10 -20 17 -11 18 -36 3 -49 -19 -16 -30 7
-13 27 11 15 11 16 -5 10 -10 -4 -20 -7 -23 -7 -2 0 1 -11 6 -24 5 -13 6 -27
2 -31 -4 -5 4 -5 18 -1 14 4 66 10 115 12 50 2 128 9 174 14 74 8 87 8 103 -7
10 -9 16 -23 13 -30 -2 -8 -1 -12 4 -9 5 3 16 -4 24 -17 16 -25 21 -25 297 3
85 8 111 7 99 -4 -2 -2 -78 -9 -169 -16 -160 -12 -166 -13 -192 -40 -15 -15
-25 -30 -22 -33 3 -3 -13 -3 -37 0 -33 5 -40 3 -34 -7 6 -10 4 -12 -8 -7 -9 3
-19 2 -22 -3 -3 -4 19 -10 47 -13 29 -3 73 -7 98 -10 25 -4 78 -7 117 -7 67
-1 72 -3 70 -22 -1 -12 4 -22 11 -24 7 -1 8 0 3 2 -5 3 -7 14 -4 24 5 17 15
20 77 21 39 1 98 5 131 9 41 6 19 7 -71 3 -109 -3 -132 -2 -137 10 -4 12 5 15
46 16 88 3 97 5 103 23 3 10 8 19 12 19 33 6 51 4 49 -5 -1 -7 41 -13 130 -16
129 -5 189 -17 99 -20 -76 -2 -86 -4 -86 -13 0 -5 23 -6 53 -3 28 4 79 7 112
8 33 1 51 3 41 6 -15 3 -16 6 -5 13 10 6 3 9 -21 9 -19 0 -51 5 -70 11 -71 22
-100 27 -106 18 -3 -5 -13 -9 -22 -9 -15 0 -15 2 -2 11 11 8 6 9 -22 4 -46 -7
-96 3 -76 17 8 5 -2 6 -26 2 -26 -5 -37 -3 -32 4 3 6 0 12 -6 15 -8 2 -1 14
19 31 19 16 30 33 26 41 -3 10 1 15 12 15 12 0 15 -5 10 -20 -4 -11 -2 -20 4
-20 6 0 11 7 11 16 0 9 8 23 18 31 9 8 11 12 5 8 -17 -8 -17 20 0 34 8 6 18 7
22 3 5 -4 5 -1 1 6 -4 7 -12 9 -18 6 -7 -4 -8 2 -2 17 4 13 7 30 7 37 0 6 7
12 15 12 9 0 12 -6 8 -16 -5 -14 -4 -15 9 -4 19 16 19 30 0 30 -23 0 -19 7 40
68 58 61 65 72 39 72 -9 0 -14 -6 -11 -13 5 -14 -79 -103 -102 -109 -7 -2 -15
7 -17 19 -3 17 8 34 43 65 25 24 52 49 60 56 8 8 13 9 13 3 0 -6 6 -11 13 -11
8 0 22 -9 33 -21 19 -21 19 -21 -11 -45 -16 -13 -27 -26 -24 -28 3 -3 18 8 34
24 22 23 26 33 17 42 -7 7 -12 15 -12 19 0 10 139 149 150 149 21 0 18 -20 -6
-52 -15 -18 -7 -13 16 12 23 25 60 63 83 84 23 22 34 37 25 33 -10 -3 -20 -1
-24 4 -7 12 51 76 78 85 10 3 18 12 18 20 0 8 6 14 14 14 7 0 40 25 72 55 33
30 64 55 70 55 5 0 29 9 52 20 44 22 75 24 107 9 19 -9 18 -9 -2 -5 -13 2 -26
0 -29 -5 -3 -6 -12 -5 -22 3 -13 11 -15 11 -9 -4 3 -9 1 -19 -6 -22 -7 -3 15
-3 48 0 45 3 54 2 38 -5 -37 -16 -27 -22 31 -19 30 1 52 6 50 10 -7 11 19 15
58 8 21 -4 35 -4 33 1 -3 4 -1 10 5 14 6 4 10 -5 10 -19 0 -21 5 -26 25 -26
14 0 25 4 25 9 0 5 -9 7 -20 4 -15 -4 -20 0 -20 15 0 16 9 22 42 27 29 5 43 4
46 -4 3 -9 7 -8 16 2 6 8 37 19 68 24 49 8 58 8 61 -6 4 -12 5 -12 6 3 1 16 3
17 18 5 11 -10 14 -10 9 -1 -4 6 -6 12 -4 12 2 0 41 4 86 10 66 7 97 6 149 -6
36 -8 68 -13 71 -10 7 7 38 -36 34 -47 -1 -5 2 -6 7 -3 5 4 12 2 16 -4 13 -22
-145 -14 -163 8 -13 16 -13 16 -8 0 3 -10 1 -18 -4 -18 -6 0 -10 4 -10 9 0 5
-9 11 -20 14 -13 3 -20 0 -20 -9 0 -8 -7 -14 -15 -14 -9 0 -12 6 -8 17 4 10 2
14 -4 10 -6 -4 -13 -4 -16 0 -2 5 -2 3 -1 -4 2 -6 -2 -14 -9 -17 -9 -3 -8 -8
3 -16 12 -10 11 -11 -9 -7 -13 3 -35 1 -50 -5 l-26 -10 38 -15 c20 -8 37 -22
37 -30 0 -8 4 -12 9 -8 5 3 12 -3 14 -12 4 -15 6 -15 12 5 4 12 11 22 16 22 5
0 6 6 3 13 -3 10 5 13 31 12 27 -2 35 1 31 12 -5 12 9 13 82 9 48 -2 88 -5 88
-5 1 -1 5 -11 9 -23 4 -14 8 -18 12 -10 3 8 29 12 76 13 54 1 65 3 42 9 l-30
8 33 1 c19 1 32 -4 32 -11 0 -9 3 -9 11 -1 7 7 13 43 14 82 2 65 0 71 -18 71
-20 0 -21 0 -1 -14 10 -8 16 -17 13 -20 -7 -8 -119 16 -119 26 0 4 -7 5 -15 2
-11 -5 -15 1 -15 23 0 22 -5 30 -17 30 -60 -1 -93 4 -93 14 0 14 198 3 216
-12 7 -6 17 -8 22 -5 5 3 49 1 98 -5 49 -5 116 -12 149 -15 37 -4 64 -12 73
-22 7 -10 11 -11 7 -4 -4 8 3 12 21 12 15 0 25 2 23 4 -4 4 -81 14 -346 46
-46 6 -118 15 -160 21 -43 5 -96 12 -118 14 -22 2 -52 6 -67 9 -23 5 -25 3
-21 -15 3 -11 11 -18 19 -15 22 9 26 -12 4 -24 -11 -6 -20 -7 -20 -2 0 5 -11
7 -25 4 -15 -2 -25 0 -25 7 0 6 -4 11 -10 11 -5 0 -7 -7 -3 -15 5 -14 0 -13
-30 2 -28 14 -31 19 -18 25 12 5 11 7 -6 7 -14 1 -23 7 -23 16 0 18 -16 20
-26 3 -4 -6 -3 -8 3 -5 6 4 13 -2 16 -12 3 -15 1 -18 -11 -14 -11 5 -13 3 -7
-8 5 -8 5 -11 -1 -6 -5 5 -9 13 -9 19 0 6 -10 14 -22 19 -25 9 -30 0 -12 -18
9 -9 7 -11 -9 -6 -22 5 -25 22 -7 35 6 4 18 5 29 2 12 -4 16 -2 12 5 -9 14
-106 15 -106 1 0 -5 6 -10 13 -10 8 0 7 -4 -3 -10 -21 -14 -33 -12 -27 4 4 10
-1 12 -16 9 -18 -4 -19 -3 -7 7 13 10 13 11 0 7 -8 -2 -14 -10 -13 -16 4 -14
-24 -15 -32 -1 -3 6 -1 10 4 10 6 0 11 5 11 11 0 8 -5 7 -15 -1 -9 -7 -14 -19
-11 -27 4 -8 -2 -13 -15 -13 -15 0 -19 -5 -15 -16 3 -9 8 -28 11 -42 3 -15 -4
-2 -15 28 -11 30 -22 61 -25 68 -2 7 -4 16 -4 20 0 4 -15 9 -32 12 -40 6 -49
27 -15 36 14 3 26 10 26 15 0 5 -11 4 -24 -1 -13 -5 -27 -6 -32 -2 -4 4 -4 2
0 -5 4 -7 -2 -14 -15 -18 -17 -6 -20 -12 -15 -36 16 -76 15 -92 -2 -41 -10 29
-21 49 -26 45 -4 -4 -4 1 0 11 5 12 2 17 -7 16 -8 -1 -25 -1 -39 0 -24 2 -24
2 8 16 17 8 32 19 32 24 0 15 -9 12 -49 -12 -45 -29 -68 -31 -74 -7 -4 14 2
21 19 25 13 3 31 4 39 0 8 -3 15 -1 15 5 0 6 -16 9 -37 7 -24 -2 -38 2 -41 11
-3 10 9 12 57 9 38 -2 61 1 61 8 0 6 -24 10 -60 10 -33 -1 -60 3 -60 9 0 6 24
11 53 11 71 2 73 2 62 13 -22 22 -70 20 -110 -2z m-18 -47 c-1 -11 -5 -20 -10
-20 -5 0 -4 -7 3 -15 7 -8 9 -16 4 -16 -5 -1 -18 -3 -29 -4 -11 -1 -30 -5 -42
-9 -41 -13 -27 26 20 56 50 33 56 34 54 8z m-107 -60 c0 -9 -14 -14 -32 -11
-5 0 -8 -3 -8 -8 0 -5 -8 -12 -17 -15 -11 -4 -7 4 10 19 29 26 47 32 47 15z
m520 -114 c0 -7 -9 -16 -20 -19 -25 -6 -26 1 -2 19 22 17 22 17 22 0z m400
-25 c0 -5 -8 -12 -17 -14 -14 -4 -13 -5 5 -7 12 -1 27 -3 32 -4 23 -3 13 -19
-13 -20 -33 -2 -50 14 -41 38 6 17 34 23 34 7z m-417 -16 c-3 -9 -8 -14 -10
-11 -3 3 -2 9 2 15 9 16 15 13 8 -4z m537 -37 c-1 -22 -1 -22 -15 -5 -9 13
-20 17 -34 12 -12 -4 -21 -2 -21 4 0 6 16 11 35 11 30 0 35 -3 35 -22z m-1080
2 c0 -5 -4 -10 -10 -10 -5 0 -10 5 -10 10 0 6 5 10 10 10 6 0 10 -4 10 -10z
m90 -4 c0 -3 -4 -8 -10 -11 -5 -3 -10 -1 -10 4 0 6 5 11 10 11 6 0 10 -2 10
-4z m397 -28 c-3 -8 -6 -5 -6 6 -1 11 2 17 5 13 3 -3 4 -12 1 -19z m493 1 c0
-6 -4 -7 -10 -4 -5 3 -10 11 -10 16 0 6 5 7 10 4 6 -3 10 -11 10 -16z m-1226
-25 c4 -10 -3 -14 -29 -14 -19 0 -35 5 -35 10 0 6 7 10 15 10 8 0 15 4 15 10
0 14 27 1 34 -16z m166 22 c0 -3 -4 -8 -10 -11 -5 -3 -10 -1 -10 4 0 6 5 11
10 11 6 0 10 -2 10 -4z m117 -28 c-3 -8 -6 -5 -6 6 -1 11 2 17 5 13 3 -3 4
-12 1 -19z m-17 2 c0 -5 -2 -10 -4 -10 -3 0 -8 5 -11 10 -3 6 -1 10 4 10 6 0
11 -4 11 -10z m85 0 c-3 -5 -13 -10 -21 -10 -8 0 -12 5 -9 10 3 6 13 10 21 10
8 0 12 -4 9 -10z m946 -10 c6 0 7 -5 3 -11 -4 -7 -1 -10 7 -7 8 3 30 -3 49
-14 19 -10 41 -18 49 -18 8 0 12 -3 9 -6 -15 -15 -96 10 -128 38 -19 17 -27
28 -17 25 10 -4 23 -7 28 -7z m-1374 -30 c-1 -11 -5 -20 -9 -20 -4 0 -7 -6 -5
-12 1 -7 -5 -11 -13 -9 -8 2 -20 4 -27 4 -25 1 22 56 49 57 4 0 6 -9 5 -20z
m53 0 c-19 -13 -30 -13 -30 0 0 6 10 10 23 10 18 0 19 -2 7 -10z m120 -19 c0
-4 -11 -6 -25 -3 -14 2 -25 6 -25 8 0 2 11 4 25 4 14 0 25 -4 25 -9z m-90 -22
c0 -6 9 -8 23 -4 12 4 26 8 31 9 14 2 15 -32 0 -45 -8 -6 -12 -14 -10 -18 3
-4 -4 -7 -15 -7 -19 0 -23 8 -19 36 1 8 -1 12 -5 8 -6 -6 -11 -25 -15 -53 0
-5 -10 7 -21 28 -11 21 -17 42 -14 47 8 13 45 13 45 -1z m1387 -15 c-3 -3 -12
-4 -19 -1 -8 3 -5 6 6 6 11 1 17 -2 13 -5z m-1469 -39 c0 -30 -6 -31 -24 -7
-18 24 -17 32 5 32 13 0 19 -7 19 -25z m32 15 c0 -5 -4 -10 -10 -10 -5 0 -10
5 -10 10 0 6 5 10 10 10 6 0 10 -4 10 -10z m180 -4 c0 -8 -5 -18 -12 -22 -7
-5 -9 -2 -5 9 3 9 1 18 -6 21 -7 2 -4 5 6 5 9 1 17 -5 17 -13z m-220 -63 c0
-12 -65 -20 -95 -13 -5 1 -16 3 -22 3 -23 1 -13 16 29 45 l43 30 22 -27 c13
-14 23 -32 23 -38z m54 31 c4 -12 2 -15 -9 -10 -9 3 -15 0 -15 -9 0 -9 9 -15
23 -15 18 0 19 -2 7 -10 -28 -18 -40 -11 -40 25 0 37 22 49 34 19z m129 9 c-7
-2 -19 -2 -25 0 -7 3 -2 5 12 5 14 0 19 -2 13 -5z m-18 -43 c-24 -26 -55 -40
-55 -26 0 2 -3 11 -6 20 -4 11 4 18 28 25 57 16 63 13 33 -19z m-285 -41 c0
-23 -8 -23 -35 -3 -16 12 -17 16 -6 23 20 13 41 2 41 -20z m90 6 c0 -5 4 -4 9
3 6 11 11 10 25 -4 9 -9 15 -23 12 -30 -3 -8 -2 -14 3 -14 5 0 11 9 14 20 6
22 53 38 69 22 8 -8 1 -20 -23 -41 -24 -23 -35 -27 -41 -18 -6 8 -8 5 -6 -8 2
-11 -3 -20 -9 -21 -7 -1 -19 -2 -25 -3 -9 -1 -8 -4 2 -11 12 -8 8 -15 -23 -45
-20 -19 -39 -35 -42 -35 -2 0 -3 13 -2 30 1 16 6 30 10 30 5 0 5 5 2 10 -3 6
0 10 7 10 9 0 9 3 -2 10 -12 8 -11 10 8 10 12 0 22 4 22 10 0 5 -7 7 -15 3 -9
-3 -24 2 -34 11 -12 11 -21 13 -24 6 -3 -6 -4 -5 -3 2 2 7 -1 23 -5 35 -6 16
-4 22 8 25 33 6 63 3 63 -7z m-116 -26 c15 -12 25 -24 22 -26 -3 -3 -1 -14 5
-24 9 -18 4 -19 -88 -19 l-98 0 39 33 c39 32 76 56 87 57 4 0 18 -10 33 -21z
m266 -37 c0 -4 -15 -23 -34 -41 -41 -40 -57 -21 -18 22 25 26 52 36 52 19z
m-226 -54 c5 -10 7 -10 12 0 9 19 23 14 21 -8 -1 -11 -5 -20 -9 -20 -4 0 -3
-11 2 -26 8 -21 6 -29 -17 -50 -26 -24 -63 -33 -63 -14 0 6 6 10 13 10 8 0 7
3 -3 10 -9 6 -17 5 -22 -3 -5 -8 -16 -7 -43 6 -49 24 -59 21 -12 -4 44 -23 45
-18 -36 -101 -26 -27 -45 -53 -42 -57 3 -5 -5 -7 -17 -4 -18 4 -16 0 10 -17
35 -24 43 -37 15 -25 -26 11 -83 13 -77 3 3 -5 -2 -18 -13 -30 -18 -20 -18
-20 -24 8 l-7 29 -1 -32 c0 -17 -9 -39 -18 -49 -16 -15 -17 -15 -24 2 -7 17
-8 17 -8 -3 -1 -13 -1 -26 0 -29 2 -14 -24 -20 -85 -20 -73 1 -82 6 -66 35 7
15 21 21 43 21 26 1 29 2 15 11 -15 8 -16 13 -5 29 6 11 17 20 24 20 7 0 13 6
13 14 0 7 10 16 22 19 24 7 46 -2 30 -12 -6 -4 -4 -11 4 -19 12 -11 14 -9 14
13 0 14 -6 25 -12 25 -10 0 -10 2 0 9 11 7 10 9 -3 14 -10 5 -14 3 -9 -5 5 -7
3 -8 -5 -4 -7 5 -10 14 -7 21 12 32 -11 20 -63 -34 -62 -64 -95 -85 -118 -77
-13 5 -13 8 1 21 8 8 25 16 38 16 17 1 18 3 6 6 -26 7 -22 19 10 32 15 6 41
23 56 36 39 33 11 33 -38 0 -46 -31 -59 -32 -26 -2 68 61 107 67 146 22 14
-16 24 -21 26 -14 3 9 11 6 26 -8 13 -14 22 -17 25 -10 8 24 -6 54 -31 71
l-27 17 28 -6 c15 -3 27 -1 27 5 0 6 27 10 64 10 36 0 67 3 69 8 3 4 -26 6
-64 4 -43 -2 -69 1 -69 8 0 5 -5 10 -11 10 -5 0 -7 -4 -4 -10 3 -5 -3 -10 -15
-10 -12 0 -19 4 -15 9 3 5 0 13 -6 16 -6 4 -13 -2 -16 -14 -3 -12 -12 -21 -19
-21 -8 0 -14 -4 -14 -10 0 -5 -7 -10 -15 -10 -8 0 -15 5 -15 10 0 6 4 10 8 10
5 0 39 27 78 60 61 53 70 57 82 43 8 -12 12 -13 12 -4 0 9 8 11 28 7 l27 -6
-29 16 c-28 16 -29 17 -11 30 25 19 231 20 239 2z m-481 -125 c11 -10 -24 -43
-45 -43 -10 0 -18 4 -18 9 0 12 30 22 43 14 6 -4 8 0 4 10 -6 17 4 23 16 10z
m155 -65 c19 -19 14 -29 -8 -16 -20 13 -27 28 -12 28 4 0 13 -5 20 -12z m-253
-38 c4 -6 -1 -7 -11 -3 -12 4 -15 3 -10 -5 5 -8 2 -10 -8 -6 -9 3 -16 10 -16
15 0 12 37 11 45 -1z m377 -94 c7 4 8 2 4 -4 -4 -7 -14 -12 -22 -12 -8 0 -12
-5 -9 -10 3 -6 -1 -13 -9 -16 -9 -3 -13 -11 -9 -17 4 -6 0 -8 -10 -4 -11 4
-14 2 -11 -7 3 -8 0 -17 -6 -21 -14 -9 -19 -4 -25 23 -4 23 35 62 61 62 8 0
14 6 15 13 0 9 2 9 6 -1 2 -6 10 -9 15 -6z m-499 -23 c-18 -28 -23 -29 -16 -5
3 12 -1 19 -10 19 -8 0 -13 -6 -10 -12 5 -14 -24 -28 -39 -19 -18 12 22 41 56
41 34 0 34 -1 19 -24z m101 6 c-3 -5 -11 -9 -19 -9 -7 0 -15 -5 -17 -12 -2 -6
-10 -8 -17 -4 -9 6 -9 11 0 22 6 7 15 11 20 8 5 -3 9 -1 9 5 0 6 7 8 15 5 8
-4 12 -10 9 -15z m413 -31 c-14 -54 -10 -50 -45 -52 l-30 -2 21 27 c12 16 28
28 36 28 8 1 11 4 8 8 -6 5 10 33 18 33 1 0 -3 -19 -8 -42z m-352 -27 c-3 -6
-11 -11 -16 -11 -5 0 -4 6 3 14 14 16 24 13 13 -3z m-258 3 c-3 -3 -12 -4 -19
-1 -8 3 -5 6 6 6 11 1 17 -2 13 -5z m213 -9 c0 -8 -7 -15 -15 -15 -8 0 -15 7
-15 15 0 8 7 15 15 15 8 0 15 -7 15 -15z m261 -27 c-24 -10 -28 -9 -28 7 0 8
4 12 9 9 4 -3 11 3 15 12 6 16 7 16 13 -2 5 -13 2 -21 -9 -26z m-676 22 c3 -5
2 -10 -4 -10 -5 0 -13 5 -16 10 -3 6 -2 10 4 10 5 0 13 -4 16 -10z m402 -21
c26 -2 31 -5 22 -16 -6 -7 -8 -13 -4 -13 4 0 2 -7 -6 -16 -10 -13 -10 -17 2
-25 10 -6 11 -9 1 -9 -7 0 -15 7 -18 15 -4 11 -21 15 -56 15 -28 0 -47 -4 -43
-9 3 -5 21 -7 40 -4 29 5 35 2 35 -12 0 -11 -5 -15 -16 -11 -8 3 -24 1 -34 -4
-15 -8 -20 -6 -25 9 -3 10 -17 31 -30 45 -24 26 -24 27 -6 34 11 4 39 6 63 5
24 -2 58 -3 75 -4z m77 -11 c-3 -4 3 -8 12 -8 21 0 16 -7 -10 -12 -11 -2 -20
3 -21 13 -2 9 3 16 11 16 7 0 11 -4 8 -9z m286 -23 c0 0 -9 -8 -20 -18 -19
-16 -20 -16 -20 1 0 11 8 18 20 18 11 0 20 -1 20 -1z m-295 -35 c3 -5 -1 -10
-10 -10 -9 0 -13 5 -10 10 3 6 8 10 10 10 2 0 7 -4 10 -10z m6 -73 c-6 -8 -7
-18 -3 -22 4 -5 1 -5 -6 -1 -10 6 -10 11 -1 22 6 8 14 14 16 14 3 0 0 -6 -6
-13z m156 6 c-4 -3 0 -15 10 -25 21 -23 -2 -25 -32 -2 -17 13 -18 16 -5 24 17
11 37 13 27 3z m-234 -23 c-3 -10 -11 -16 -18 -14 -7 3 -16 1 -20 -5 -9 -15
-25 -14 -25 2 0 19 16 32 43 33 19 1 23 -2 20 -16z m42 10 c-3 -5 -11 -10 -16
-10 -6 0 -7 5 -4 10 3 6 11 10 16 10 6 0 7 -4 4 -10z m230 0 c3 -5 2 -10 -4
-10 -5 0 -13 5 -16 10 -3 6 -2 10 4 10 5 0 13 -4 16 -10z m-225 -60 c0 -5 -4
-10 -10 -10 -5 0 -10 5 -10 10 0 6 5 10 10 10 6 0 10 -4 10 -10z m50 0 c0 -5
-2 -10 -4 -10 -3 0 -8 5 -11 10 -3 6 -1 10 4 10 6 0 11 -4 11 -10z"/>
<path d="M3074 2172 c-11 -8 -12 -22 -1 -39 13 -21 26 -15 23 12 -3 30 -8 36
-22 27z"/>
<path d="M2741 1974 c0 -11 3 -14 6 -6 3 7 2 16 -1 19 -3 4 -6 -2 -5 -13z"/>
<path d="M4682 2770 c0 -16 3 -32 8 -35 13 -8 18 31 5 48 -10 14 -12 13 -13
-13z"/>
<path d="M3750 2780 c0 -5 7 -10 16 -10 8 0 12 5 9 10 -3 6 -10 10 -16 10 -5
0 -9 -4 -9 -10z"/>
<path d="M5140 2780 c-9 -6 -10 -10 -3 -10 6 0 15 5 18 10 8 12 4 12 -15 0z"/>
<path d="M2475 2760 c3 -6 20 -10 37 -10 38 0 34 5 -10 13 -21 4 -31 3 -27 -3z"/>
<path d="M4201 2754 c0 -11 3 -14 6 -6 3 7 2 16 -1 19 -3 4 -6 -2 -5 -13z"/>
<path d="M5105 2761 c-3 -5 -1 -12 5 -16 5 -3 10 1 10 9 0 18 -6 21 -15 7z"/>
<path d="M2313 2753 c9 -2 23 -2 30 0 6 3 -1 5 -18 5 -16 0 -22 -2 -12 -5z"/>
<path d="M2345 2737 c-20 -19 -19 -19 52 -15 39 2 69 0 66 -4 -2 -5 28 -6 68
-3 72 5 107 15 55 15 -16 0 -25 4 -21 10 3 6 1 10 -4 10 -6 0 -11 -5 -11 -11
0 -6 -8 -8 -19 -4 -11 3 -22 1 -26 -5 -3 -5 -11 -10 -16 -10 -6 0 -7 5 -4 10
5 8 -19 14 -46 12 -3 0 -21 3 -40 7 -27 6 -38 4 -54 -12z"/>
<path d="M2607 2748 c-7 -4 5 -8 26 -8 20 0 37 3 37 8 0 9 -48 9 -63 0z"/>
<path d="M3732 2748 c-15 -15 -16 -32 -2 -23 6 3 10 2 10 -4 0 -5 -6 -12 -12
-14 -8 -3 -6 -6 5 -6 9 -1 17 5 17 12 0 8 3 8 8 2 4 -6 20 -8 37 -4 19 4 23 7
10 8 -11 0 -26 10 -33 21 -14 23 -23 25 -40 8z"/>
<path d="M3785 2750 c-3 -5 1 -10 9 -10 9 0 16 5 16 10 0 6 -4 10 -9 10 -6 0
-13 -4 -16 -10z"/>
<path d="M3874 2745 c3 -8 -4 -21 -16 -29 -12 -9 -19 -18 -15 -22 3 -4 22 7
40 23 32 28 38 30 88 23 30 -4 90 -11 134 -15 88 -8 99 -11 88 -28 -4 -7 0 -7
10 1 13 11 31 11 94 2 87 -12 194 -27 265 -35 26 -4 54 -13 62 -21 10 -9 16
-10 18 -2 4 12 158 -6 188 -22 9 -5 22 -5 31 1 12 7 12 9 -1 10 -8 0 -26 2
-40 5 -208 36 -737 107 -889 119 -53 4 -62 2 -57 -10z"/>
<path d="M4602 2735 c0 -16 2 -22 5 -12 2 9 2 23 0 30 -3 6 -5 -1 -5 -18z"/>
<path d="M2703 2743 c29 -5 33 -13 16 -30 -7 -7 -3 -9 15 -6 16 3 26 1 26 -6
0 -7 -4 -9 -10 -6 -5 3 -10 1 -10 -5 0 -7 17 -8 53 -3 28 4 66 8 84 8 17 0 29
4 26 8 -2 4 34 5 81 1 63 -5 86 -3 86 5 0 7 -5 9 -10 6 -6 -4 -50 -2 -98 4
-48 6 -112 13 -142 17 -30 3 -58 8 -62 10 -4 3 -5 -3 -2 -13 5 -17 5 -17 -9 0
-8 10 -26 16 -43 16 l-29 -2 28 -4z"/>
<path d="M5390 2740 c0 -5 12 -10 28 -10 21 0 24 2 12 10 -20 13 -40 13 -40 0z"/>
<path d="M3186 2725 c-11 -8 -15 -15 -9 -15 6 0 16 7 23 15 16 19 11 19 -14 0z"/>
<path d="M5134 2731 c7 -11 46 -35 46 -28 0 3 -12 12 -26 22 -15 9 -23 12 -20
6z"/>
<path d="M3134 2694 c-18 -14 -18 -15 4 -4 12 6 22 13 22 15 0 8 -5 6 -26 -11z"/>
<path d="M3173 2690 c-24 -10 -43 -21 -43 -24 0 -7 72 23 85 35 13 13 5 11
-42 -11z"/>
<path d="M2950 2679 c0 -5 9 -9 19 -9 11 0 22 4 25 9 3 5 -6 9 -19 9 -14 0
-25 -4 -25 -9z"/>
<path d="M3095 2680 c-3 -5 -1 -10 4 -10 6 0 11 5 11 10 0 6 -2 10 -4 10 -3 0
-8 -4 -11 -10z"/>
<path d="M4260 2670 c-18 -6 -20 -8 -7 -9 16 -1 17 -6 12 -32 -6 -27 -5 -30 6
-19 8 7 14 25 14 41 0 16 0 29 0 28 0 -1 -11 -5 -25 -9z"/>
<path d="M4746 2668 c3 -5 10 -6 15 -3 13 9 11 12 -6 12 -8 0 -12 -4 -9 -9z"/>
<path d="M5257 2635 c27 -25 52 -44 57 -45 6 0 -4 12 -22 26 -17 15 -30 30
-27 33 2 4 -9 12 -26 18 -26 10 -24 6 18 -32z"/>
<path d="M2728 2663 c7 -3 16 -2 19 1 4 3 -2 6 -13 5 -11 0 -14 -3 -6 -6z"/>
<path d="M2793 2663 c-18 -2 -33 -8 -33 -14 0 -5 -9 -9 -20 -9 -18 0 -19 -3
-10 -20 7 -14 7 -20 0 -20 -5 0 -10 -4 -10 -9 0 -10 67 -26 90 -22 11 2 10 -2
-4 -18 -19 -21 -19 -21 11 -15 40 8 52 -20 21 -48 -30 -26 77 41 174 108 44
31 80 49 83 44 4 -6 3 -9 -2 -8 -8 3 -194 -127 -265 -184 -22 -17 -32 -19 -50
-12 -24 11 -75 -6 -61 -19 3 -4 12 -2 20 5 7 6 16 8 19 5 7 -6 -21 -35 -56
-58 l-24 -16 23 2 c12 1 26 7 30 14 5 7 12 13 17 13 16 -1 105 58 110 73 4 8
10 12 15 9 5 -3 12 2 15 10 3 9 10 16 15 16 14 0 219 150 219 161 0 14 -40 11
-88 -7 -34 -14 -47 -15 -65 -5 -38 20 -122 31 -174 24z"/>
<path d="M3209 2658 c0 -7 -2 -21 -4 -30 -2 -10 1 -18 6 -18 5 0 9 14 9 30 0
29 -9 44 -11 18z"/>
<path d="M3906 2655 c4 -8 8 -15 10 -15 2 0 4 7 4 15 0 8 -4 15 -10 15 -5 0
-7 -7 -4 -15z"/>
<path d="M5500 2646 c0 -14 5 -28 10 -31 6 -3 10 5 10 19 0 14 -4 28 -10 31
-6 3 -10 -5 -10 -19z"/>
<path d="M5715 2650 c10 -11 20 -20 23 -20 3 0 -3 9 -13 20 -10 11 -20 20 -23
20 -3 0 3 -9 13 -20z"/>
<path d="M3144 2644 c-18 -14 -18 -15 4 -4 12 6 22 13 22 15 0 8 -5 6 -26 -11z"/>
<path d="M4195 2649 c-4 -6 -5 -12 -2 -15 2 -3 7 2 10 11 7 17 1 20 -8 4z"/>
<path d="M3280 2635 c-14 -8 -20 -14 -14 -15 5 0 19 7 30 15 24 18 16 19 -16
0z"/>
<path d="M4060 2635 c0 -8 2 -15 4 -15 2 0 6 7 10 15 3 8 1 15 -4 15 -6 0 -10
-7 -10 -15z"/>
<path d="M4090 2640 c0 -5 5 -10 11 -10 5 0 7 5 4 10 -3 6 -8 10 -11 10 -2 0
-4 -4 -4 -10z"/>
<path d="M3870 2603 c0 -12 4 -24 9 -27 11 -7 33 18 24 27 -3 4 -1 7 5 7 7 0
12 4 12 10 0 5 -11 9 -25 8 -19 -2 -25 -8 -25 -25z"/>
<path d="M4908 2613 c7 -3 16 -2 19 1 4 3 -2 6 -13 5 -11 0 -14 -3 -6 -6z"/>
<path d="M4968 2603 c6 -2 18 -2 25 0 6 3 1 5 -13 5 -14 0 -19 -2 -12 -5z"/>
<path d="M3184 2585 c-10 -8 -14 -14 -9 -14 6 0 19 6 29 14 11 8 15 15 10 15
-6 0 -19 -7 -30 -15z"/>
<path d="M5018 2593 c6 -2 18 -2 25 0 6 3 1 5 -13 5 -14 0 -19 -2 -12 -5z"/>
<path d="M5338 2589 c7 -9 9 -18 6 -22 -3 -3 4 -11 16 -17 31 -17 30 -9 -4 25
-16 17 -24 23 -18 14z"/>
<path d="M4185 2580 c11 -4 23 -18 26 -31 7 -24 7 -24 8 -1 1 20 4 21 21 12
14 -7 20 -7 20 0 0 20 -5 22 -50 25 -27 2 -37 0 -25 -5z"/>
<path d="M5212 2569 c8 -18 20 -25 42 -26 19 -1 23 1 11 4 -11 3 -30 14 -42
26 l-23 20 12 -24z"/>
<path d="M5850 2566 c0 -2 8 -10 18 -17 15 -13 16 -12 3 4 -13 16 -21 21 -21
13z"/>
<path d="M3129 2543 c-13 -17 -13 -17 6 -3 11 8 22 16 24 17 2 2 0 3 -6 3 -6
0 -17 -8 -24 -17z"/>
<path d="M2220 2530 c0 -5 0 -13 1 -16 2 -13 -26 -23 -46 -18 -15 4 -16 3 -6
-4 16 -11 -2 -27 -23 -19 -7 3 -13 -1 -13 -8 0 -9 6 -11 21 -5 55 22 76 36 71
48 -2 7 5 17 18 22 l22 9 -22 0 c-13 1 -23 -3 -23 -9z"/>
<path d="M5303 2533 c9 -2 23 -2 30 0 6 3 -1 5 -18 5 -16 0 -22 -2 -12 -5z"/>
<path d="M2348 2523 c7 -3 16 -2 19 1 4 3 -2 6 -13 5 -11 0 -14 -3 -6 -6z"/>
<path d="M3072 2517 c-8 -10 -6 -13 9 -13 10 0 19 6 19 13 0 7 -4 13 -9 13 -5
0 -13 -6 -19 -13z"/>
<path d="M5373 2519 c10 -6 39 -12 65 -14 56 -5 29 9 -38 19 -34 4 -41 3 -27
-5z"/>
<path d="M4545 2510 c-7 -12 2 -12 30 0 19 8 19 9 -2 9 -12 1 -25 -3 -28 -9z"/>
<path d="M5621 2503 c-1 -12 -7 -24 -13 -26 -10 -4 -10 -6 0 -6 6 -1 12 -9 12
-18 0 -15 2 -15 9 -4 13 20 61 -1 68 -29 3 -11 9 -20 15 -20 5 0 4 9 -2 20
-10 19 -9 19 17 8 15 -7 33 -15 38 -19 6 -4 15 -1 22 6 9 10 0 16 -47 29 -32
9 -61 23 -64 31 -3 8 -10 15 -16 15 -6 0 -8 -4 -5 -10 3 -5 1 -10 -6 -10 -6 0
-9 8 -6 20 3 11 1 18 -3 15 -5 -3 -11 1 -13 7 -3 7 -6 3 -6 -9z"/>
<path d="M2256 2483 c-27 -15 -44 -29 -38 -31 7 -2 13 -13 13 -25 1 -21 2 -21
6 -2 6 22 48 65 64 65 5 0 9 5 9 10 0 12 4 14 -54 -17z"/>
<path d="M5212 2483 c7 -16 18 -38 26 -50 12 -19 11 -22 -15 -32 l-28 -11 27
5 c21 4 31 0 44 -19 8 -14 12 -31 8 -37 -4 -8 -3 -9 4 -5 7 4 14 -3 18 -18 6
-24 50 -63 60 -53 8 8 -37 77 -57 88 -11 5 -19 14 -19 20 0 6 6 7 13 3 6 -4 0
5 -15 21 -30 30 -37 50 -13 42 8 -4 17 -2 20 3 4 6 -5 10 -19 10 -18 0 -30 9
-41 30 -19 38 -29 39 -13 3z m108 -164 c0 -6 -4 -7 -10 -4 -5 3 -10 11 -10 16
0 6 5 7 10 4 6 -3 10 -11 10 -16z"/>
<path d="M4598 2493 c6 -2 18 -2 25 0 6 3 1 5 -13 5 -14 0 -19 -2 -12 -5z"/>
<path d="M5430 2491 c0 -10 30 -24 37 -17 3 2 -5 9 -16 16 -12 6 -21 7 -21 1z"/>
<path d="M5490 2496 c0 -2 9 -6 20 -9 11 -3 18 -1 14 4 -5 9 -34 13 -34 5z"/>
<path d="M4653 2483 c9 -2 23 -2 30 0 6 3 -1 5 -18 5 -16 0 -22 -2 -12 -5z"/>
<path d="M5548 2483 c6 -2 18 -2 25 0 6 3 1 5 -13 5 -14 0 -19 -2 -12 -5z"/>
<path d="M5007 2468 c-15 -11 -7 -12 45 -9 45 2 57 6 43 12 -30 12 -69 10 -88
-3z"/>
<path d="M2100 2462 c-21 -9 -110 -72 -110 -77 0 -2 29 14 65 36 68 43 86 59
45 41z"/>
<path d="M2775 2460 c-3 -6 1 -7 9 -4 18 7 21 14 7 14 -6 0 -13 -4 -16 -10z"/>
<path d="M5525 2424 l30 -26 -37 4 c-22 2 -39 -1 -42 -7 -3 -8 4 -10 20 -7 13
2 32 1 41 -3 17 -6 17 -7 0 -20 -16 -12 -14 -13 22 -8 33 5 41 3 41 -10 0 -9
-4 -19 -10 -22 -27 -16 -5 -22 40 -10 28 7 52 13 54 12 3 -1 8 1 12 5 4 5 -12
7 -36 5 -31 -1 -44 2 -48 13 -3 11 -2 12 8 4 6 -7 21 -9 32 -6 15 4 17 7 6 13
-11 7 -10 11 2 19 12 7 8 10 -16 10 -17 0 -57 13 -90 30 -58 29 -58 29 -29 4z"/>
<path d="M2130 2406 c-72 -36 -170 -95 -170 -103 0 -2 24 9 53 25 28 17 86 49
127 71 89 48 82 53 -10 7z"/>
<path d="M5308 2433 c6 -2 18 -2 25 0 6 3 1 5 -13 5 -14 0 -19 -2 -12 -5z"/>
<path d="M5078 2423 c7 -3 16 -2 19 1 4 3 -2 6 -13 5 -11 0 -14 -3 -6 -6z"/>
<path d="M5155 2420 c3 -5 8 -10 11 -10 2 0 4 5 4 10 0 6 -5 10 -11 10 -5 0
-7 -4 -4 -10z"/>
<path d="M5360 2420 c19 -13 30 -13 30 0 0 6 -10 10 -22 10 -19 0 -20 -2 -8
-10z"/>
<path d="M4690 2401 c5 -11 15 -22 22 -25 9 -4 8 -5 -2 -5 -32 2 -36 -2 -32
-37 3 -24 8 -32 15 -25 7 7 20 6 43 -4 18 -7 36 -10 40 -7 4 4 4 1 0 -6 -4 -7
-13 -10 -19 -6 -7 3 -3 -2 8 -11 11 -9 30 -14 43 -12 12 2 22 0 22 -4 0 -5 7
-9 15 -9 8 0 15 5 15 10 0 6 -4 10 -10 10 -5 0 -10 4 -10 10 0 5 7 6 17 3 12
-5 14 -3 8 7 -5 9 -4 11 3 6 7 -4 12 -3 12 3 0 5 -19 16 -42 24 -24 9 -35 16
-26 16 10 1 36 -6 58 -15 39 -16 40 -17 21 -33 -22 -19 -25 -58 -4 -58 6 0 10
4 7 9 -3 4 5 8 18 8 18 0 20 -2 8 -10 -11 -7 -1 -10 35 -11 28 -1 62 -3 78 -4
22 -2 26 1 22 16 -5 13 3 10 24 -11 19 -20 39 -30 59 -30 17 0 33 -6 35 -12 4
-10 6 -10 6 0 1 14 31 17 31 2 0 -5 9 -10 20 -10 12 0 20 -7 20 -16 0 -10 -8
-15 -22 -14 -46 4 -66 0 -72 -15 -3 -9 0 -15 10 -15 8 0 12 5 9 10 -3 6 1 10
9 10 9 0 16 -7 16 -16 0 -8 5 -12 10 -9 6 4 8 10 5 15 -3 5 4 8 15 7 12 -1 23
-10 26 -24 4 -13 10 -23 15 -23 5 0 5 8 2 18 -6 14 -4 15 9 4 13 -10 17 -10
21 0 3 9 9 7 22 -7 9 -11 14 -14 10 -7 -3 6 -2 12 3 12 18 0 20 41 5 86 -8 25
-18 43 -20 40 -3 -3 0 -19 7 -36 18 -44 6 -48 -31 -11 -24 25 -34 29 -40 19
-7 -10 -9 -9 -9 4 0 10 -12 19 -32 23 -50 10 -118 37 -118 46 0 5 -7 6 -15 3
-11 -5 -13 -2 -9 10 5 14 9 14 23 4 9 -7 19 -17 23 -23 5 -6 8 -4 8 5 1 11 4
10 15 -4 8 -11 15 -14 15 -7 0 7 5 9 10 6 6 -4 9 -1 8 7 -4 17 -28 42 -34 35
-3 -3 -27 1 -52 9 -111 34 -360 94 -393 94 -16 0 -18 -3 -9 -19z m371 -86 c10
6 11 5 3 -4 -12 -14 -47 -4 -38 11 4 6 9 6 14 -2 5 -7 14 -9 21 -5z"/>
<path d="M2642 2378 c-23 -17 -40 -34 -38 -36 8 -7 72 26 90 47 30 33 -3 27
-52 -11z"/>
<path d="M5752 2401 c2 -8 -8 -17 -22 -22 -20 -6 -17 -7 20 -9 56 -2 121 -9
138 -15 22 -8 13 -27 -10 -19 -12 3 -38 8 -57 9 l-36 3 40 -17 c44 -20 85 -16
85 6 0 10 7 14 18 11 24 -7 47 18 26 26 -9 3 -20 4 -25 0 -10 -6 -41 20 -34
28 3 3 -2 5 -10 5 -8 0 -15 -4 -15 -10 0 -5 -17 -6 -40 -2 -29 5 -40 3 -40 -6
0 -8 -8 -5 -21 7 -14 12 -19 14 -17 5z"/>
<path d="M6006 2383 c38 -58 66 -114 60 -120 -3 -4 -6 -1 -6 5 0 6 -7 9 -15 6
-8 -4 -12 -11 -8 -17 4 -6 0 -8 -10 -4 -9 3 -18 0 -21 -9 -4 -10 6 -20 27 -30
55 -26 185 -246 156 -264 -13 -9 0 -40 17 -40 7 0 20 -13 29 -30 9 -16 12 -30
7 -30 -5 0 -15 11 -22 25 -7 14 -15 23 -18 20 -3 -2 1 -11 8 -20 17 -20 -7
-20 -34 0 -11 8 -36 15 -56 15 -20 0 -41 5 -48 12 -7 7 -12 8 -12 2 0 -12 -43
-34 -64 -34 -7 0 -18 10 -24 23 -11 20 -11 20 -6 -8 l5 -30 -25 30 c-27 31
-34 28 -16 -6 8 -15 7 -19 -5 -19 -8 0 -15 8 -15 18 0 10 -6 27 -14 38 -13 17
-15 17 -21 2 -4 -9 -2 -26 5 -37 9 -18 8 -21 -8 -21 -10 0 -24 6 -31 13 -11
10 -13 10 -7 0 4 -8 1 -13 -8 -13 -8 0 -17 6 -19 13 -4 10 -6 10 -6 0 -1 -15
-41 -18 -41 -3 0 18 -77 12 -84 -6 -12 -31 42 -62 59 -34 4 6 -7 10 -25 10
-44 0 -34 25 11 26 31 2 32 1 4 -3 l-30 -5 36 -12 c24 -9 54 -10 90 -5 61 8
337 5 444 -6 68 -7 69 -6 47 10 -13 10 -21 23 -18 31 4 11 1 12 -13 4 -14 -7
-22 -5 -32 7 -12 15 -12 16 5 10 14 -6 17 -4 12 8 -3 8 -9 22 -13 32 -5 12 -3
14 8 8 8 -4 -4 10 -27 31 -38 36 -97 140 -99 174 -2 33 -16 70 -25 65 -5 -3
-11 -1 -14 4 -3 5 1 11 9 15 8 3 15 10 15 16 0 6 -5 8 -12 4 -7 -4 -8 -3 -4 5
4 6 -6 25 -24 43 -18 17 -44 49 -57 70 -14 21 -28 38 -30 38 -3 0 3 -12 13
-27z m219 -403 c3 -5 1 -10 -4 -10 -6 0 -11 5 -11 10 0 6 2 10 4 10 3 0 8 -4
11 -10z m25 -62 c0 -4 -4 -8 -10 -8 -5 0 -10 4 -10 9 0 5 -3 18 -6 28 -5 16
-4 16 10 -1 9 -11 16 -23 16 -28z"/>
<path d="M3521 2391 c-8 -5 -9 -11 -3 -15 5 -3 15 1 22 9 14 16 3 20 -19 6z"/>
<path d="M4360 2379 l-45 -6 58 -1 c31 -1 57 0 57 2 0 9 -28 11 -70 5z"/>
<path d="M5362 2385 c10 -10 118 -33 118 -24 0 4 -13 10 -30 13 -16 3 -45 9
-62 12 -18 4 -30 3 -26 -1z"/>
<path d="M5500 2370 c-8 -5 -10 -10 -5 -10 6 0 17 5 25 10 8 5 11 10 5 10 -5
0 -17 -5 -25 -10z"/>
<path d="M3933 2363 c-18 -7 -16 -30 2 -37 11 -4 15 1 15 19 0 14 -1 25 -2 24
-2 0 -9 -3 -15 -6z"/>
<path d="M1980 2350 c-9 -6 -10 -10 -3 -10 6 0 15 5 18 10 8 12 4 12 -15 0z"/>
<path d="M3463 2337 c-6 -11 -3 -13 27 -21 14 -3 19 -3 13 0 -21 9 -15 23 7
17 11 -3 20 0 20 6 0 13 -59 11 -67 -2z"/>
<path d="M3546 2342 c-3 -5 1 -9 9 -9 8 0 12 4 9 9 -3 4 -7 8 -9 8 -2 0 -6 -4
-9 -8z"/>
<path d="M4037 2333 c-16 -15 -6 -30 18 -25 15 2 25 11 25 21 0 14 -2 14 -10
1 -8 -12 -12 -12 -18 -2 -5 7 -11 9 -15 5z"/>
<path d="M5555 2331 c-3 -5 -2 -12 3 -15 5 -3 9 1 9 9 0 17 -3 19 -12 6z"/>
<path d="M5715 2330 c-3 -5 -1 -10 4 -10 6 0 11 5 11 10 0 6 -2 10 -4 10 -3 0
-8 -4 -11 -10z"/>
<path d="M1940 2320 c-9 -6 -10 -10 -3 -10 6 0 15 5 18 10 8 12 4 12 -15 0z"/>
<path d="M5440 2320 c0 -6 7 -10 15 -10 8 0 15 2 15 4 0 2 -7 6 -15 10 -8 3
-15 1 -15 -4z"/>
<path d="M3423 2310 c-31 -12 -29 -17 6 -16 18 1 27 5 24 14 -3 6 -6 12 -7 11
0 0 -11 -4 -23 -9z"/>
<path d="M4343 2313 c9 -2 23 -2 30 0 6 3 -1 5 -18 5 -16 0 -22 -2 -12 -5z"/>
<path d="M4409 2311 c12 -8 51 -4 51 5 0 2 -15 4 -32 4 -23 0 -29 -3 -19 -9z"/>
<path d="M5485 2309 c-4 -6 -4 -13 -1 -16 3 -4 6 0 6 8 1 10 5 8 15 -5 15 -19
15 -19 15 2 0 23 -24 30 -35 11z"/>
<path d="M1910 2280 c-19 -11 -54 -19 -77 -20 -23 0 -44 -4 -47 -9 -3 -4 7 -8
22 -7 17 1 26 -4 24 -12 -1 -8 2 -11 8 -7 6 3 7 11 4 17 -4 7 -2 8 5 4 10 -7
101 38 101 49 0 7 -1 7 -40 -15z"/>
<path d="M2467 2249 c-32 -22 -57 -42 -57 -45 0 -5 90 56 115 78 25 22 -8 4
-58 -33z"/>
<path d="M5218 2283 c6 -2 18 -2 25 0 6 3 1 5 -13 5 -14 0 -19 -2 -12 -5z"/>
<path d="M5260 2280 c0 -5 4 -10 9 -10 6 0 13 5 16 10 3 6 -1 10 -9 10 -9 0
-16 -4 -16 -10z"/>
<path d="M5594 2250 c1 -8 10 -16 21 -17 15 -1 15 0 3 3 -9 3 -19 11 -21 17
-2 7 -3 5 -3 -3z"/>
<path d="M3330 2240 c-24 -15 -7 -19 20 -5 15 8 19 14 10 14 -8 1 -22 -3 -30
-9z"/>
<path d="M5650 2238 c0 -10 8 -19 18 -20 9 0 24 -2 32 -2 8 -1 14 -8 12 -16
-2 -8 0 -11 4 -7 17 16 12 37 -9 38 -12 1 -26 1 -31 0 -5 -1 -13 4 -17 11 -7
10 -9 9 -9 -4z"/>
<path d="M1806 2221 c-4 -6 -12 -9 -19 -7 -7 1 -8 1 -4 -2 4 -2 3 -10 -4 -18
-6 -8 -15 -11 -20 -8 -5 3 -9 0 -9 -5 0 -6 3 -11 8 -11 13 1 66 49 60 55 -3 4
-9 2 -12 -4z"/>
<path d="M3281 2201 c-13 -10 -19 -21 -14 -24 10 -7 50 29 42 37 -2 3 -15 -3
-28 -13z"/>
<path d="M4863 2213 c3 -4 45 -9 94 -11 48 -1 96 -5 107 -8 12 -4 17 -2 14 6
-3 9 -38 14 -112 18 -60 2 -106 0 -103 -5z"/>
<path d="M1710 2179 c0 -5 5 -7 10 -4 6 3 10 8 10 11 0 2 -4 4 -10 4 -5 0 -10
-5 -10 -11z"/>
<path d="M5000 2175 c0 -8 -4 -15 -10 -15 -5 0 -10 -9 -10 -20 0 -11 7 -20 16
-20 8 0 12 5 9 10 -12 20 7 9 31 -17 14 -17 22 -21 18 -10 -4 11 -1 17 7 17
10 1 9 5 -3 14 -10 7 -18 19 -18 26 0 10 -4 9 -16 -1 -15 -12 -16 -11 -10 9 5
13 3 22 -3 22 -6 0 -11 -7 -11 -15z"/>
<path d="M5109 2163 c6 -12 8 -29 4 -39 -4 -11 -2 -15 4 -11 6 4 13 16 16 28
3 11 3 18 0 15 -3 -3 -12 2 -20 12 -13 15 -13 15 -4 -5z"/>
<path d="M1715 2149 c-4 -6 -13 -8 -21 -5 -8 3 -14 -1 -14 -10 0 -8 -4 -12
-10 -9 -5 3 -10 1 -10 -4 0 -6 -4 -11 -10 -11 -17 0 -49 -33 -43 -43 4 -6 -1
-8 -10 -4 -11 4 -17 1 -17 -8 0 -9 -10 -15 -24 -15 -14 0 -28 -5 -31 -10 -4
-6 -11 -8 -16 -5 -5 4 -9 -2 -9 -12 0 -24 -19 -43 -36 -36 -8 3 -14 1 -14 -5
0 -6 -10 -8 -22 -5 -20 4 -21 3 -5 -7 9 -6 17 -16 17 -23 0 -7 -4 -6 -10 3 -5
8 -10 11 -10 6 0 -5 -7 -2 -17 5 -15 13 -15 12 -2 -8 18 -29 24 -29 61 3 17
14 37 23 44 20 8 -3 11 0 8 9 -3 8 6 21 23 31 45 29 203 145 203 150 0 8 -19
4 -25 -7z"/>
<path d="M1808 2153 c7 -3 16 -2 19 1 4 3 -2 6 -13 5 -11 0 -14 -3 -6 -6z"/>
<path d="M5290 2080 c0 -5 7 -10 16 -10 8 0 12 5 9 10 -3 6 -10 10 -16 10 -5
0 -9 -4 -9 -10z"/>
<path d="M5330 2071 c0 -3 5 -13 10 -21 7 -11 10 -12 10 -2 0 8 6 12 13 9 6
-2 11 -10 9 -17 -2 -7 3 -17 10 -22 10 -7 10 -11 -4 -21 -11 -9 -14 -22 -11
-41 4 -20 2 -27 -6 -22 -6 4 -11 1 -11 -6 0 -10 -3 -9 -11 2 -9 13 -10 13 -6
0 2 -8 10 -14 16 -12 6 1 11 -5 11 -13 0 -15 -26 -21 -32 -7 -5 11 -98 41 -98
31 0 -5 -15 -9 -34 -9 -19 0 -37 -6 -39 -12 -4 -8 -8 -4 -12 10 -10 29 -23 29
-18 -1 4 -20 1 -23 -18 -22 -12 1 -31 12 -42 26 -13 15 -18 17 -14 7 3 -10 2
-20 -2 -22 -9 -6 -31 37 -31 59 0 8 -4 16 -9 19 -4 3 -6 -6 -3 -20 3 -16 -1
-30 -9 -35 -10 -6 -8 -9 9 -9 31 0 28 -16 -5 -28 l-28 -11 35 1 c100 0 130 -4
130 -18 0 -10 -13 -14 -47 -14 -33 0 -44 -3 -33 -10 8 -5 80 -7 160 -5 112 3
147 1 147 -8 0 -13 -8 -15 -122 -19 -38 -2 -75 -7 -82 -11 -6 -4 -13 -4 -15 0
-1 5 -21 5 -43 2 -36 -6 -34 -8 18 -13 6 0 15 -17 18 -36 6 -32 6 -32 8 -7 1
27 3 28 35 24 19 -3 40 0 47 7 9 8 11 7 6 -6 -7 -21 4 -23 22 -5 10 10 11 9 6
-3 -9 -25 178 -22 202 3 17 18 17 19 -2 34 -14 11 -16 17 -7 20 6 3 10 9 6 14
-13 21 -12 49 2 49 17 0 19 -16 2 -23 -10 -4 -10 -6 -1 -6 6 -1 15 3 18 9 3 6
15 1 28 -10 l21 -21 8 21 c4 11 12 20 18 20 6 0 8 -4 5 -10 -4 -6 1 -7 11 -3
14 5 16 3 11 -11 -5 -11 -3 -15 5 -10 7 5 9 0 6 -14 -4 -13 0 -23 8 -26 8 -3
14 -10 14 -16 0 -6 -4 -8 -10 -5 -5 3 -10 1 -10 -4 0 -6 13 -11 29 -11 16 0
31 -4 33 -9 2 -5 23 -12 47 -16 38 -6 42 -5 30 7 -7 8 -25 14 -41 13 -15 -1
-25 2 -23 5 3 4 -1 13 -9 19 -11 9 -15 9 -20 -1 -3 -7 -4 -3 -2 10 2 12 0 20
-5 17 -9 -6 -41 49 -33 57 12 13 -27 26 -86 29 -77 4 -103 15 -90 40 7 12 5
21 -5 29 -8 7 -15 18 -15 24 0 6 -5 27 -10 47 -8 30 -16 38 -40 41 -17 3 -30
2 -30 -1z m67 -91 c-1 -20 -8 -25 -20 -14 -3 3 0 12 6 20 16 17 16 17 14 -6z
m13 -69 c0 -14 -5 -18 -20 -14 -21 5 -25 15 -13 26 13 14 33 6 33 -12z m-117
-41 c23 0 36 -4 32 -10 -3 -5 -44 -10 -91 -10 -71 0 -84 2 -84 16 0 14 8 16
53 10 28 -3 69 -6 90 -6z"/>
<path d="M4960 2021 c0 -5 5 -13 10 -16 6 -3 10 -2 10 4 0 5 -4 13 -10 16 -5
3 -10 2 -10 -4z"/>
<path d="M5330 2006 c0 -8 4 -17 9 -20 5 -4 7 3 4 14 -6 23 -13 26 -13 6z"/>
<path d="M5516 2002 c6 -4 13 -14 16 -22 3 -10 6 -8 10 8 5 18 2 22 -15 22
-13 0 -17 -3 -11 -8z"/>
<path d="M5111 1964 c0 -11 3 -14 6 -6 3 7 2 16 -1 19 -3 4 -6 -2 -5 -13z"/>
<path d="M1535 1934 c-22 -20 -31 -31 -20 -26 18 9 74 62 64 62 -2 -1 -22 -17
-44 -36z"/>
<path d="M3030 1940 c-9 -6 -10 -10 -3 -10 6 0 15 5 18 10 8 12 4 12 -15 0z"/>
<path d="M4686 1923 c-6 -14 -5 -15 5 -6 7 7 10 15 7 18 -3 3 -9 -2 -12 -12z"/>
<path d="M6276 1917 c3 -10 9 -15 12 -12 3 3 0 11 -7 18 -10 9 -11 8 -5 -6z"/>
<path d="M1375 1906 c11 -8 23 -12 28 -9 13 8 -3 23 -26 23 -20 0 -20 0 -2
-14z"/>
<path d="M1314 1887 c-11 -7 -39 -27 -62 -46 -30 -25 -39 -37 -30 -43 11 -6
10 -8 0 -8 -9 0 -10 -5 -2 -19 14 -27 13 -31 -6 -24 -14 5 -15 3 -4 -17 11
-20 10 -22 -4 -17 -19 8 -48 -2 -41 -13 6 -10 45 -7 63 4 7 4 20 2 29 -5 8 -7
26 -15 39 -16 18 -3 22 0 17 12 -4 11 -13 15 -27 11 -15 -4 -26 1 -34 14 -14
22 -6 50 14 50 8 0 14 7 14 15 0 10 6 12 18 8 15 -6 15 -5 3 10 -7 10 -9 17
-3 17 9 0 82 65 82 73 0 8 -48 4 -66 -6z m16 -27 c0 -5 -4 -10 -10 -10 -5 0
-10 5 -10 10 0 6 5 10 10 10 6 0 10 -4 10 -10z"/>
<path d="M4888 1883 c12 -2 22 -10 22 -16 0 -9 2 -9 8 -1 4 7 16 14 27 17 11
2 -2 5 -30 4 -27 0 -40 -2 -27 -4z"/>
<path d="M1420 1854 c0 -14 4 -23 9 -20 5 3 7 15 4 26 -7 28 -13 25 -13 -6z"/>
<path d="M2268 1843 c6 -2 18 -2 25 0 6 3 1 5 -13 5 -14 0 -19 -2 -12 -5z"/>
<path d="M4914 1831 c-2 -2 -24 -5 -50 -7 -54 -2 -73 -14 -23 -14 61 0 169 13
169 20 0 7 -89 8 -96 1z"/>
<path d="M6138 1823 c6 -2 18 -2 25 0 6 3 1 5 -13 5 -14 0 -19 -2 -12 -5z"/>
<path d="M6228 1813 c12 -2 30 -2 40 0 9 3 -1 5 -23 4 -22 0 -30 -2 -17 -4z"/>
<path d="M5978 1793 c6 -2 18 -2 25 0 6 3 1 5 -13 5 -14 0 -19 -2 -12 -5z"/>
<path d="M6070 1785 c0 -8 4 -15 8 -15 5 0 9 7 9 15 0 8 -4 15 -9 15 -4 0 -8
-7 -8 -15z"/>
<path d="M6135 1793 c22 -3 43 -10 47 -16 6 -9 8 -9 8 1 0 7 14 12 35 12 21 0
35 -5 35 -12 0 -10 2 -10 8 -1 4 6 28 13 52 16 25 2 -16 4 -90 4 -74 0 -117
-2 -95 -4z"/>
<path d="M1863 1770 c-10 -11 -23 -20 -30 -20 -15 0 -17 -16 -4 -24 5 -3 14 1
21 10 7 8 19 13 27 10 8 -4 11 -1 8 5 -4 6 1 17 11 24 18 13 18 14 1 15 -9 0
-25 -9 -34 -20z"/>
<path d="M1805 1699 c-4 -6 -5 -12 -2 -15 2 -3 7 2 10 11 7 17 1 20 -8 4z"/>
<path d="M3669 1704 c-1 -5 0 -21 1 -36 1 -25 -2 -28 -31 -28 -38 0 -35 -9 4
-12 15 -1 27 -8 27 -15 0 -7 -6 -10 -13 -7 -14 5 -40 -20 -50 -48 -3 -10 0
-19 9 -22 8 -3 12 -2 9 3 -3 5 -1 12 5 16 5 3 10 15 10 26 0 42 25 11 28 -34
2 -36 7 -47 20 -47 13 0 14 2 4 9 -10 6 -13 33 -11 100 1 50 -1 94 -5 98 -3 3
-6 2 -7 -3z"/>
<path d="M1770 1679 c0 -5 5 -7 10 -4 6 3 10 8 10 11 0 2 -4 4 -10 4 -5 0 -10
-5 -10 -11z"/>
<path d="M1218 1668 c6 -6 18 -8 28 -6 14 3 12 5 -9 10 -19 3 -25 2 -19 -4z"/>
<path d="M1513 1673 c9 -2 23 -2 30 0 6 3 -1 5 -18 5 -16 0 -22 -2 -12 -5z"/>
<path d="M1270 1665 c0 -7 30 -13 34 -7 3 4 -4 9 -15 9 -10 1 -19 0 -19 -2z"/>
<path d="M1405 1650 c18 -20 18 -21 -3 -27 -12 -3 -22 -10 -22 -15 0 -5 -4 -7
-9 -4 -5 3 -14 -1 -21 -9 -7 -8 -16 -12 -21 -9 -5 3 -9 -2 -9 -10 0 -8 -12
-22 -27 -30 -25 -13 -25 -15 -7 -16 11 0 23 -3 27 -6 7 -7 -29 -44 -43 -44 -5
0 -10 -4 -10 -10 0 -19 17 -10 61 30 24 22 50 40 56 40 7 0 12 3 11 8 -2 4 4
17 13 29 13 19 23 22 67 19 29 -1 58 -8 64 -14 9 -9 8 -12 -5 -12 -9 0 -17 4
-17 10 0 5 -7 7 -15 4 -8 -4 -12 -11 -8 -18 4 -6 -1 -5 -10 3 -10 8 -20 11
-24 7 -3 -3 0 -6 8 -6 11 0 11 -2 -1 -10 -10 -7 8 -9 58 -8 56 2 71 5 67 16
-4 10 1 11 18 6 33 -10 42 -17 42 -34 0 -9 7 -14 18 -12 11 2 17 -4 17 -18 0
-28 29 -26 75 6 38 25 65 49 65 57 0 2 -7 4 -15 4 -8 0 -12 -3 -10 -7 4 -7
-19 -29 -60 -56 -23 -15 -28 -15 -36 -3 -11 17 -12 32 -1 26 4 -3 7 10 8 29 1
37 -10 42 -40 19 -15 -11 -23 -12 -40 -3 -25 14 -68 20 -61 9 6 -11 -78 30
-86 41 -3 5 -13 6 -22 2 -12 -4 -17 -1 -17 11 0 9 -4 14 -9 10 -5 -3 -12 -1
-16 5 -3 5 -11 10 -17 10 -6 0 -3 -9 7 -20z m-15 -66 c0 -12 -62 -64 -71 -58
-15 9 -10 26 7 20 9 -3 12 -2 9 5 -4 6 1 17 11 24 20 15 44 20 44 9z"/>
<path d="M609 1639 l-24 -20 28 17 c15 9 27 18 27 20 0 8 -8 4 -31 -17z"/>
<path d="M1706 1647 c4 -12 1 -14 -14 -10 -11 2 -23 0 -26 -6 -4 -7 -1 -8 8
-5 9 4 16 1 16 -6 0 -10 3 -10 15 0 8 7 22 9 31 6 11 -4 15 -2 11 8 -3 8 -1
17 6 20 9 3 9 5 0 5 -6 1 -15 -4 -18 -9 -5 -8 -11 -7 -21 1 -12 10 -13 9 -8
-4z"/>
<path d="M3578 1633 c7 -3 16 -2 19 1 4 3 -2 6 -13 5 -11 0 -14 -3 -6 -6z"/>
<path d="M550 1605 c-17 -10 -20 -14 -9 -15 9 0 22 7 29 15 15 18 12 18 -20 0z"/>
<path d="M1720 1589 c-6 -11 -9 -25 -6 -32 2 -7 5 -4 5 6 1 9 5 17 9 17 5 0
17 7 28 15 19 14 18 14 -3 15 -12 0 -27 -9 -33 -21z"/>
<path d="M3170 1599 c0 -5 5 -7 11 -3 6 3 15 0 20 -7 7 -11 9 -10 9 4 0 10 -8
17 -20 17 -11 0 -20 -5 -20 -11z"/>
<path d="M2830 1581 c0 -25 6 -27 13 -6 4 8 2 17 -3 20 -6 4 -10 -3 -10 -14z"/>
<path d="M1100 1575 c-14 -8 -20 -14 -15 -14 6 0 21 6 35 14 14 8 21 14 15 14
-5 0 -21 -6 -35 -14z"/>
<path d="M2875 1580 c3 -5 8 -10 11 -10 2 0 4 5 4 10 0 6 -5 10 -11 10 -5 0
-7 -4 -4 -10z"/>
<path d="M2915 1580 c3 -5 8 -10 11 -10 2 0 4 5 4 10 0 6 -5 10 -11 10 -5 0
-7 -4 -4 -10z"/>
<path d="M3228 1583 c7 -3 16 -2 19 1 4 3 -2 6 -13 5 -11 0 -14 -3 -6 -6z"/>
<path d="M1035 1570 c-3 -5 -22 -10 -41 -10 l-35 0 31 -30 c24 -23 35 -28 48
-21 10 6 24 5 37 -1 19 -11 19 -10 2 9 -9 11 -14 23 -10 28 5 4 1 4 -7 -1 -24
-14 -39 -13 -33 1 2 8 12 15 21 17 12 2 13 6 5 11 -6 4 -14 3 -18 -3z"/>
<path d="M2795 1570 c3 -5 8 -10 11 -10 2 0 4 5 4 10 0 6 -5 10 -11 10 -5 0
-7 -4 -4 -10z"/>
<path d="M3338 1573 c12 -2 30 -2 40 0 9 3 -1 5 -23 4 -22 0 -30 -2 -17 -4z"/>
<path d="M3518 1553 c7 -3 16 -2 19 1 4 3 -2 6 -13 5 -11 0 -14 -3 -6 -6z"/>
<path d="M3568 1543 c7 -3 16 -2 19 1 4 3 -2 6 -13 5 -11 0 -14 -3 -6 -6z"/>
<path d="M1213 1533 c9 -2 25 -2 35 0 9 3 1 5 -18 5 -19 0 -27 -2 -17 -5z"/>
<path d="M2810 1530 l-25 -8 28 -1 c15 -1 27 4 27 9 0 6 -1 10 -2 9 -2 -1 -14
-5 -28 -9z"/>
<path d="M1611 1521 c-11 -7 -11 -9 0 -13 8 -3 -6 -21 -35 -49 -66 -60 -81
-62 -26 -3 l45 49 -47 -44 c-25 -24 -44 -49 -42 -55 4 -11 -38 -56 -52 -56 -3
0 -16 -12 -29 -26 -17 -18 -30 -24 -44 -19 -25 8 -27 2 -5 -19 16 -17 49 -22
40 -7 -5 7 52 64 89 89 36 25 133 139 127 149 -5 7 -13 9 -21 4z"/>
<path d="M1223 1479 c-24 -22 -43 -41 -43 -42 0 -7 71 1 77 8 5 4 0 5 -9 2
-22 -8 -34 9 -12 17 8 3 13 10 10 15 -8 12 19 33 29 23 5 -4 5 -1 1 6 -9 15
-4 18 -53 -29z"/>
<path d="M615 1490 c-3 -5 -1 -10 4 -10 6 0 11 5 11 10 0 6 -2 10 -4 10 -3 0
-8 -4 -11 -10z"/>
<path d="M3728 1493 c6 -2 18 -2 25 0 6 3 1 5 -13 5 -14 0 -19 -2 -12 -5z"/>
<path d="M2709 1481 c11 -7 11 -9 0 -14 -10 -4 -9 -6 4 -6 9 -1 17 6 17 14 0
8 -8 15 -17 15 -14 0 -15 -2 -4 -9z"/>
<path d="M3125 1480 c-18 -8 -17 -9 8 -9 16 -1 26 3 22 9 -3 6 -7 10 -8 9 -1
0 -11 -4 -22 -9z"/>
<path d="M2093 1453 c9 -2 25 -2 35 0 9 3 1 5 -18 5 -19 0 -27 -2 -17 -5z"/>
<path d="M3413 1453 c9 -2 23 -2 30 0 6 3 -1 5 -18 5 -16 0 -22 -2 -12 -5z"/>
<path d="M3150 1440 c0 -5 10 -10 23 -10 18 0 19 2 7 10 -19 13 -30 13 -30 0z"/>
<path d="M3003 1433 c9 -2 23 -2 30 0 6 3 -1 5 -18 5 -16 0 -22 -2 -12 -5z"/>
<path d="M1469 1413 c-8 -9 -9 -14 -2 -10 6 4 13 1 16 -5 2 -8 8 -9 13 -4 5 5
4 11 -4 13 -6 3 -10 9 -6 14 9 15 -3 10 -17 -8z"/>
<path d="M1199 1407 c7 -10 18 -17 23 -17 8 0 17 -6 51 -36 19 -16 47 -24 47
-14 0 6 -5 10 -12 10 -6 0 -25 11 -42 23 -17 13 -42 30 -56 37 -23 12 -24 12
-11 -3z"/>
<path d="M2813 1413 c9 -2 25 -2 35 0 9 3 1 5 -18 5 -19 0 -27 -2 -17 -5z"/>
<path d="M2425 1391 c-27 -6 -28 -7 -8 -13 12 -3 25 -3 28 0 3 3 18 8 33 10
15 2 29 5 31 8 6 6 -49 3 -84 -5z"/>
<path d="M2768 1383 c7 -3 16 -2 19 1 4 3 -2 6 -13 5 -11 0 -14 -3 -6 -6z"/>
<path d="M2269 1373 c25 -3 54 -11 65 -19 24 -16 18 -18 -18 -4 -16 6 -27 6
-31 -1 -4 -5 -3 -9 2 -8 4 1 21 -3 36 -9 35 -15 44 -15 52 -2 11 18 -57 50
-105 48 l-45 -1 44 -4z"/>
<path d="M2988 1373 c6 -2 18 -2 25 0 6 3 1 5 -13 5 -14 0 -19 -2 -12 -5z"/>
<path d="M2188 1363 c6 -2 18 -2 25 0 6 3 1 5 -13 5 -14 0 -19 -2 -12 -5z"/>
<path d="M2485 1360 c-19 -8 -19 -9 1 -9 38 -2 81 -25 76 -41 -4 -12 -2 -13 9
-2 7 6 21 12 31 12 34 0 18 18 -26 29 -24 6 -50 13 -57 15 -8 3 -23 1 -34 -4z"/>
<path d="M2698 1363 c7 -3 16 -2 19 1 4 3 -2 6 -13 5 -11 0 -14 -3 -6 -6z"/>
<path d="M1197 1340 c3 -12 13 -17 36 -16 32 2 49 21 20 23 -10 0 -28 3 -39 6
-17 4 -21 2 -17 -13z"/>
<path d="M3303 1353 c9 -2 23 -2 30 0 6 3 -1 5 -18 5 -16 0 -22 -2 -12 -5z"/>
<path d="M2228 1343 c7 -3 16 -2 19 1 4 3 -2 6 -13 5 -11 0 -14 -3 -6 -6z"/>
<path d="M2418 1343 c7 -3 16 -2 19 1 4 3 -2 6 -13 5 -11 0 -14 -3 -6 -6z"/>
<path d="M2630 1336 c0 -9 30 -14 35 -6 4 6 -3 10 -14 10 -12 0 -21 -2 -21 -4z"/>
<path d="M1515 1290 c-3 -5 -1 -10 4 -10 6 0 11 5 11 10 0 6 -2 10 -4 10 -3 0
-8 -4 -11 -10z"/>
<path d="M2355 1280 c-4 -6 3 -10 14 -10 25 0 27 6 6 13 -8 4 -17 2 -20 -3z"/>
<path d="M1310 1266 c0 -2 9 -6 20 -9 11 -3 18 -1 14 4 -5 9 -34 13 -34 5z"/>
<path d="M1475 1252 c-5 -4 -11 -14 -13 -22 -3 -11 2 -10 17 4 12 11 21 21 21
23 0 5 -15 3 -25 -5z"/>
<path d="M1390 1215 c19 -14 36 -25 39 -25 10 1 -53 50 -63 50 -6 0 5 -11 24
-25z"/>
<path d="M3985 1020 c10 -11 20 -20 23 -20 3 0 -3 9 -13 20 -10 11 -20 20 -23
20 -3 0 3 -9 13 -20z"/>
</g>
</svg>
